<svg preserveAspectRatio="none" width="100%" height="100%" overflow="visible" style="display: block;" viewBox="0 0 70 70" fill="none" xmlns="http://www.w3.org/2000/svg">
<g id="fi_9254658">
<path id="Target" d="M51.961 36.75C51.5592 40.6453 49.8331 44.2849 47.0711 47.0609C44.309 49.837 40.6783 51.5814 36.785 52.003C36.7066 52.0021 36.6288 52.0168 36.5562 52.0464C36.4836 52.0759 36.4176 52.1197 36.3622 52.1752C36.3067 52.2306 36.2629 52.2966 36.2334 52.3692C36.2038 52.4418 36.1891 52.5196 36.19 52.598V65.331C36.19 65.6466 36.0646 65.9493 35.8415 66.1725C35.6183 66.3956 35.3156 66.521 35 66.521C34.6844 66.521 34.3817 66.3956 34.1585 66.1725C33.9354 65.9493 33.81 65.6466 33.81 65.331V60.711C33.7987 60.557 33.7323 60.4121 33.6231 60.3029C33.5139 60.1937 33.369 60.1273 33.215 60.116C27.9224 59.6877 22.9021 57.5912 18.8769 54.1282C14.8516 50.6652 12.0289 46.0143 10.815 40.845C10.7698 40.6918 10.7559 40.5312 10.7741 40.3725C10.7924 40.2139 10.8423 40.0605 10.921 39.9216C10.9998 39.7827 11.1056 39.661 11.2324 39.5638C11.3591 39.4667 11.5041 39.396 11.6587 39.3561C11.8133 39.3162 11.9744 39.3077 12.1323 39.3313C12.2902 39.355 12.4418 39.4101 12.578 39.4935C12.7141 39.5769 12.8321 39.6869 12.9249 39.8168C13.0177 39.9468 13.0833 40.0941 13.118 40.25C14.1972 44.8901 16.7135 49.0711 20.3083 52.1971C23.9032 55.3231 28.3931 57.2345 33.138 57.659C33.292 57.736 33.439 57.659 33.586 57.512C33.6637 57.4681 33.7265 57.402 33.7665 57.3222C33.8064 57.2424 33.8215 57.1525 33.81 57.064V52.598C33.8109 52.5196 33.7962 52.4418 33.7666 52.3692C33.7371 52.2966 33.6933 52.2306 33.6378 52.1752C33.5824 52.1197 33.5164 52.0759 33.4438 52.0464C33.3712 52.0168 33.2934 52.0021 33.215 52.003C29.3403 51.5713 25.7246 49.8449 22.953 47.103C20.182 44.318 18.452 40.6654 18.053 36.757C18.0303 36.614 17.9585 36.4833 17.8499 36.3875C17.7413 36.2917 17.6027 36.2367 17.458 36.232H4.725C4.40011 36.232 4.08853 36.1029 3.8588 35.8732C3.62906 35.6435 3.5 35.3319 3.5 35.007C3.5 34.6821 3.62906 34.3705 3.8588 34.1408C4.08853 33.9111 4.40011 33.782 4.725 33.782H9.562C9.70634 33.776 9.84422 33.7205 9.95254 33.6249C10.0609 33.5294 10.133 33.3995 10.157 33.257C10.4746 27.9723 12.4382 22.9194 15.7724 18.807C19.1066 14.6945 23.6442 11.7285 28.749 10.325C29.0581 10.2663 29.378 10.3282 29.643 10.4978C29.908 10.6675 30.0981 10.9321 30.1742 11.2374C30.2503 11.5427 30.2067 11.8656 30.0523 12.1398C29.8979 12.414 29.6445 12.6187 29.344 12.712C24.7769 13.9435 20.7085 16.5705 17.7066 20.2262C14.7048 23.8818 12.9195 28.3836 12.6 33.103C12.5803 33.1899 12.581 33.2803 12.6023 33.3669C12.6235 33.4535 12.6647 33.5339 12.7224 33.6018C12.7801 33.6698 12.8529 33.7233 12.9349 33.7582C13.017 33.7931 13.106 33.8085 13.195 33.803H17.43C17.5747 33.7983 17.7133 33.7433 17.8219 33.6475C17.9305 33.5517 18.0023 33.421 18.025 33.278C18.4214 29.3755 20.1468 25.7277 22.9122 22.9458C25.6776 20.1638 29.3149 18.4167 33.215 17.997C33.2934 17.9979 33.3712 17.9832 33.4438 17.9536C33.5164 17.9241 33.5824 17.8803 33.6378 17.8248C33.6933 17.7694 33.7371 17.7034 33.7666 17.6308C33.7962 17.5582 33.8109 17.4804 33.81 17.402V4.669C33.81 4.35339 33.9354 4.05071 34.1585 3.82754C34.3817 3.60438 34.6844 3.479 35 3.479C35.3156 3.479 35.6183 3.60438 35.8415 3.82754C36.0646 4.05071 36.19 4.35339 36.19 4.669V19.11C36.198 19.2785 36.1707 19.4468 36.1098 19.6042C36.049 19.7615 35.9559 19.9044 35.8367 20.0237C35.7174 20.1429 35.5745 20.236 35.4172 20.2968C35.2598 20.3577 35.0915 20.385 34.923 20.377C21.98 20.377 15.512 36.225 24.661 45.381C33.81 54.537 49.427 47.985 49.651 35C49.6491 34.8432 49.6786 34.6876 49.7378 34.5424C49.7969 34.3972 49.8845 34.2652 49.9954 34.1544C50.1062 34.0435 50.2382 33.9559 50.3834 33.8968C50.5286 33.8376 50.6842 33.8081 50.841 33.81H65.275C65.5999 33.81 65.9115 33.9391 66.1412 34.1688C66.3709 34.3985 66.5 34.7101 66.5 35.035C66.5 35.3599 66.3709 35.6715 66.1412 35.9012C65.9115 36.1309 65.5999 36.26 65.275 36.26H60.515C60.3673 36.2541 60.223 36.3053 60.1122 36.4031C60.0013 36.5009 59.9325 36.6377 59.92 36.785C59.5337 42.1027 57.4772 47.1624 54.044 51.2417C50.6109 55.321 45.9766 58.2113 40.803 59.5C39.242 59.871 38.703 57.491 40.278 57.12C44.8983 55.9712 49.0418 53.4019 52.1248 49.7739C55.2078 46.1459 57.0748 41.6421 57.463 36.897C57.4827 36.8101 57.482 36.7197 57.4607 36.6331C57.4395 36.5465 57.3983 36.4661 57.3406 36.3982C57.2829 36.3302 57.2101 36.2767 57.1281 36.2418C57.046 36.2069 56.957 36.1915 56.868 36.197H52.556C52.4113 36.2017 52.2727 36.2567 52.1641 36.3525C52.0555 36.4483 51.9837 36.579 51.961 36.722V36.75ZM61.6 16.954L52.997 25.508C52.7868 25.7362 52.4949 25.872 52.185 25.886H46.452C46.2955 25.8997 46.1444 25.9501 46.011 26.033L35.819 36.302C35.5898 36.5161 35.2865 36.633 34.9729 36.628C34.6593 36.623 34.3599 36.4965 34.1377 36.2752C33.9155 36.0539 33.7878 35.755 33.7815 35.4414C33.7752 35.1278 33.8908 34.824 34.104 34.594L44.296 24.318C44.3646 24.2836 44.422 24.2305 44.4616 24.1649C44.5013 24.0992 44.5215 24.0237 44.52 23.947V18.2C44.5186 18.0344 44.5507 17.8703 44.6144 17.7175C44.6782 17.5647 44.7723 17.4264 44.891 17.311L53.445 8.764C53.6102 8.58543 53.8253 8.46074 54.0623 8.40617C54.2994 8.35161 54.5474 8.36969 54.774 8.45808C55.0006 8.54646 55.1954 8.70104 55.3329 8.90169C55.4704 9.10234 55.5443 9.33975 55.545 9.583V14.273C55.5549 14.4276 55.6208 14.5732 55.7303 14.6827C55.8398 14.7922 55.9854 14.8581 56.14 14.868H60.753C60.9991 14.8615 61.2413 14.9294 61.4483 15.0626C61.6552 15.1959 61.8172 15.3884 61.9132 15.615C62.0091 15.8417 62.0346 16.092 61.9862 16.3333C61.9378 16.5747 61.8179 16.7958 61.642 16.968L61.6 16.954ZM51.8 23.254L56.784 18.27C56.8706 18.19 56.9318 18.0863 56.96 17.9719C56.9882 17.8574 56.9822 17.7372 56.9427 17.6261C56.9032 17.515 56.8319 17.418 56.7377 17.347C56.6436 17.2761 56.5307 17.2343 56.413 17.227H54.313C53.9879 17.2346 53.6728 17.1141 53.4358 16.8915C53.1988 16.6688 53.0588 16.3619 53.046 16.037V14C53.0454 13.8794 53.0095 13.7617 52.9426 13.6614C52.8758 13.5611 52.7809 13.4826 52.6699 13.4356C52.5589 13.3887 52.4365 13.3753 52.3179 13.3973C52.1994 13.4192 52.0899 13.4754 52.003 13.559L47.103 18.543C46.9722 18.657 46.8917 18.818 46.879 18.991V22.862C46.8781 22.9404 46.8928 23.0182 46.9224 23.0908C46.9519 23.1634 46.9957 23.2294 47.0512 23.2848C47.1066 23.3403 47.1726 23.3841 47.2452 23.4136C47.3178 23.4432 47.3956 23.4579 47.474 23.457H51.415C51.569 23.457 51.716 23.457 51.786 23.303L51.8 23.254ZM45.108 35.014C45.1108 37.0154 44.5197 38.9727 43.4096 40.6381C42.2996 42.3035 40.7204 43.6022 38.8719 44.3697C37.0235 45.1372 34.9889 45.3391 33.0257 44.9498C31.0624 44.5606 29.2588 43.5976 27.8431 42.1829C26.4274 40.7681 25.4632 38.9652 25.0725 37.0022C24.6819 35.0392 24.8824 33.0045 25.6486 31.1555C26.4149 29.3066 27.7124 27.7265 29.377 26.6153C31.0417 25.504 32.9985 24.9116 35 24.913C35.3007 24.9361 35.5817 25.0718 35.7867 25.2931C35.9917 25.5144 36.1055 25.8049 36.1055 26.1065C36.1055 26.4081 35.9917 26.6986 35.7867 26.9199C35.5817 27.1412 35.3007 27.2769 35 27.3C32.9578 27.3 30.9993 28.1112 29.5553 29.5553C28.1112 30.9993 27.3 32.9578 27.3 35C27.3 37.0422 28.1112 39.0007 29.5553 40.4447C30.9993 41.8888 32.9578 42.7 35 42.7C39.466 42.7 42.441 39.354 42.658 35C42.651 34.8311 42.6789 34.6626 42.7398 34.5049C42.8007 34.3473 42.8935 34.2038 43.0122 34.0835C43.131 33.9633 43.2732 33.8687 43.4301 33.8057C43.5869 33.7428 43.7551 33.7128 43.924 33.7176C44.093 33.7224 44.2592 33.7619 44.4122 33.8337C44.5652 33.9055 44.7018 34.008 44.8135 34.1349C44.9252 34.2617 45.0097 34.4102 45.0615 34.5711C45.1134 34.732 45.1316 34.9018 45.115 35.07L45.108 35.014Z" fill="var(--fill-0, white)"/>
</g>
</svg>
