<svg preserveAspectRatio="none" width="100%" height="100%" overflow="visible" style="display: block;" viewBox="0 0 70.0005 60.1564" fill="none" xmlns="http://www.w3.org/2000/svg">
<g id="Group">
<path id="Vector" d="M44.4855 53.4363C55.0988 53.4363 63.7334 44.1785 63.7334 32.7992C63.7334 21.4198 55.0988 12.1619 44.4855 12.1619C33.8721 12.1619 25.2374 21.4197 25.2374 32.7992C25.2374 44.1787 33.8721 53.4363 44.4855 53.4363ZM30.1541 31.6935H27.3314C27.5672 27.444 29.152 23.5782 31.6324 20.5818L33.6226 22.7157C33.8239 22.9316 34.0878 23.0395 34.3517 23.0395C34.6155 23.0395 34.8795 22.9316 35.0807 22.7157C35.4834 22.2839 35.4834 21.5839 35.0807 21.1523L33.0905 19.0184C35.8852 16.3591 39.4908 14.6599 43.4542 14.4071V17.4335C43.4542 18.0441 43.9157 18.5391 44.4853 18.5391C45.0549 18.5391 45.5165 18.0441 45.5165 17.4335V14.4071C49.4799 14.6599 53.0855 16.3591 55.88 19.0184L53.8898 21.1523C53.4871 21.584 53.4871 22.2841 53.8898 22.7157C54.0912 22.9315 54.3552 23.0395 54.619 23.0395C54.8828 23.0395 55.1468 22.9316 55.3482 22.7157L57.3383 20.5818C59.8185 23.5782 61.4034 27.4439 61.6391 31.6933H58.8164C58.2468 31.6933 57.7853 32.1883 57.7853 32.7989C57.7853 33.4094 58.2468 33.9044 58.8164 33.9044H61.6391C61.4033 38.1539 59.8185 42.0198 57.3382 45.016L55.3481 42.8822C54.9453 42.4505 54.2925 42.4505 53.8898 42.8822C53.4871 43.314 53.4871 44.014 53.8898 44.4456L55.88 46.5795C53.0854 49.2389 49.4799 50.938 45.5165 51.1908V48.1644C45.5165 47.5539 45.0549 47.0589 44.4853 47.0589C43.9157 47.0589 43.4542 47.5539 43.4542 48.1644V51.1908C39.4907 50.938 35.8852 49.2389 33.0905 46.5795L35.0807 44.4458C35.4834 44.014 35.4834 43.314 35.0807 42.8824C34.6779 42.4505 34.0251 42.4506 33.6226 42.8824L31.6324 45.0161C29.152 42.0198 27.5672 38.154 27.3314 33.9044H30.1541C30.7236 33.9044 31.1853 33.4094 31.1853 32.7989C31.1853 32.1885 30.7236 31.6935 30.1541 31.6935Z" fill="var(--fill-0, white)"/>
<path id="Vector_2" d="M56.9876 54.0781C53.2503 56.608 48.9269 57.9452 44.485 57.9452C31.553 57.9452 21.032 46.6648 21.032 32.7995C21.032 27.1861 22.7189 21.8768 25.9102 17.4454C26.2582 16.9622 26.175 16.268 25.7242 15.8947C25.2735 15.5216 24.626 15.6108 24.2778 16.0942C20.8051 20.916 18.9697 26.6926 18.9697 32.7995C18.9697 47.884 30.4158 60.1563 44.485 60.1563C49.3173 60.1563 54.0214 58.7009 58.0886 55.9476C58.5702 55.6217 58.714 54.9389 58.4101 54.4226C58.1059 53.9064 57.4692 53.7523 56.9876 54.0781Z" fill="var(--fill-0, white)"/>
<path id="Vector_3" d="M50.7041 6.26567V2.0749C50.7041 0.930726 49.8359 0 48.7689 0H40.2017C39.1345 0 38.2665 0.930726 38.2665 2.0749V6.26449C34.166 7.36592 30.3617 9.55107 27.1953 12.6808C26.7767 13.0947 26.7501 13.794 27.136 14.243C27.5221 14.6919 28.1745 14.7205 28.5931 14.3066C32.9336 10.0163 38.5776 7.65351 44.4853 7.65351C57.4173 7.65351 67.9383 18.9338 67.9383 32.7992C67.9383 39.9161 65.1065 46.7307 60.1691 51.4952C59.7459 51.9037 59.7115 52.6027 60.0925 53.0565C60.2959 53.2992 60.577 53.4224 60.8591 53.4224C61.1049 53.4224 61.3516 53.3288 61.5487 53.1387C66.9199 47.9554 70.0005 40.5419 70.0005 32.799C70.0007 20.0139 61.7773 9.25036 50.7041 6.26567ZM40.3289 5.80517V2.2111H48.642V5.80738C47.2889 5.56858 45.9007 5.4424 44.4856 5.4424C43.0823 5.4424 41.6928 5.56505 40.3289 5.80517Z" fill="var(--fill-0, white)"/>
<path id="Vector_4" d="M44.4843 33.5732C44.8712 33.5732 45.2078 33.3446 45.3842 33.0068L48.9412 29.1931C49.3438 28.7613 49.3438 28.0613 48.9412 27.6295C48.5385 27.1978 47.8857 27.1978 47.4827 27.6295L45.5153 29.7387V24.3549C45.5153 23.7443 45.0538 23.2493 44.4842 23.2493C43.9146 23.2493 43.4531 23.7443 43.4531 24.3549V32.4674C43.4532 33.0783 43.9147 33.5732 44.4843 33.5732Z" fill="var(--fill-0, white)"/>
<path id="Vector_5" d="M15.216 33.0488C15.216 32.4383 14.7544 31.9433 14.1849 31.9433H1.03113C0.461671 31.9433 0 32.4383 0 33.0488C0 33.6594 0.461671 34.1544 1.03113 34.1544H14.1849C14.7544 34.1544 15.216 33.6595 15.216 33.0488Z" fill="var(--fill-0, white)"/>
<path id="Vector_6" d="M5.14337 27.7158H15.5594C16.1289 27.7158 16.5906 27.2208 16.5906 26.6102C16.5906 25.9997 16.1289 25.5047 15.5594 25.5047H5.14337C4.57392 25.5047 4.11224 25.9997 4.11224 26.6102C4.11224 27.2208 4.57378 27.7158 5.14337 27.7158Z" fill="var(--fill-0, white)"/>
<path id="Vector_7" d="M16.9349 19.0661H8.39258C7.82312 19.0661 7.36145 19.5611 7.36145 20.1716C7.36145 20.7822 7.82312 21.2772 8.39258 21.2772H16.9349C17.5043 21.2772 17.966 20.7822 17.966 20.1716C17.966 19.5609 17.5043 19.0661 16.9349 19.0661Z" fill="var(--fill-0, white)"/>
<path id="Vector_8" d="M16.5904 38.9886C16.5904 38.378 16.1288 37.883 15.5593 37.883H5.14337C4.57392 37.883 4.11224 38.378 4.11224 38.9886C4.11224 39.5991 4.57392 40.0941 5.14337 40.0941H15.5594C16.1288 40.0941 16.5904 39.5991 16.5904 38.9886Z" fill="var(--fill-0, white)"/>
<path id="Vector_9" d="M16.9349 44.3211H8.39258C7.82312 44.3211 7.36145 44.8161 7.36145 45.4267C7.36145 46.0372 7.82312 46.5322 8.39258 46.5322H16.9349C17.5043 46.5322 17.966 46.0372 17.966 45.4267C17.966 44.8161 17.5043 44.3211 16.9349 44.3211Z" fill="var(--fill-0, white)"/>
</g>
</svg>
