<svg preserveAspectRatio="none" width="100%" height="100%" overflow="visible" style="display: block;" viewBox="0 0 70 58.9743" fill="none" xmlns="http://www.w3.org/2000/svg">
<g id="Group">
<path id="Vector" d="M49.4635 7.80626H46.1389C45.5725 7.80626 45.1135 8.26536 45.1135 8.83166C45.1135 9.39795 45.5725 9.85705 46.1389 9.85705H49.4635C50.4177 9.85705 51.3477 10.171 52.1074 10.7331L45.3342 22.2502L36.9338 9.85705H41.3536C41.92 9.85705 42.379 9.39795 42.379 8.83166C42.379 8.26536 41.92 7.80626 41.3536 7.80626C40.8173 7.80626 21.5724 7.80626 20.5363 7.80626C18.7694 7.80626 17.0571 8.5399 15.8388 9.81904L5.4536 20.719C3.48101 22.7893 3.74447 25.9365 5.47151 27.9602L29.9583 56.6491C31.2507 58.1633 33.1148 58.9743 35 58.9743C36.8792 58.9743 38.7471 58.1657 40.0418 56.6491L51.2365 43.5331C51.604 43.1023 51.5529 42.455 51.1222 42.0874C50.6913 41.7198 50.044 41.771 49.6765 42.2016L38.482 55.3176C38.3746 55.4434 38.2612 55.5623 38.1424 55.6746L46.1857 25.1937H63.7342C63.5866 25.718 63.3269 26.2087 62.9683 26.6287L52.8147 38.525C52.4472 38.9558 52.4983 39.6031 52.929 39.9707C53.3599 40.3383 54.0071 40.2871 54.3746 39.8565L64.5282 27.9603C66.2655 25.9254 66.5064 22.777 64.5463 20.719H64.5461C57.9482 13.794 60.7472 16.7318 54.1612 9.81918C52.9426 8.5399 51.2305 7.80626 49.4635 7.80626ZM35 10.6592L43.4617 23.143H26.5382L35 10.6592ZM20.5365 9.85705H33.0662L24.6658 22.2502L17.8925 10.7333C18.6522 10.171 19.5823 9.85705 20.5365 9.85705ZM6.93864 22.1333C7.85739 21.1691 15.1495 13.5155 16.3864 12.2174L22.8118 23.1429H6.30727C6.44932 22.7595 6.68954 22.3949 6.93864 22.1333ZM31.518 55.3177L7.03161 26.6288C6.67313 26.2088 6.41337 25.7181 6.26585 25.1938H23.8143L31.8576 55.6747C31.7388 55.5624 31.6254 55.4435 31.518 55.3177ZM35.7063 56.8681C35.252 56.9391 34.7581 56.9407 34.2936 56.8681L25.9352 25.1938H44.0648L35.7063 56.8681ZM63.0614 22.1336C63.3158 22.4006 63.55 22.7583 63.6926 23.143H47.1883L53.6135 12.2175C54.5528 13.2033 62.1255 21.1514 63.0614 22.1336Z" fill="var(--fill-0, white)"/>
<path id="Vector_2" d="M68.9746 11.8728H65.3453C64.7788 11.8728 64.3199 12.3319 64.3199 12.8982C64.3199 13.4645 64.7788 13.9236 65.3453 13.9236H68.9746C69.541 13.9236 70 13.4645 70 12.8982C70 12.3319 69.541 11.8728 68.9746 11.8728Z" fill="var(--fill-0, white)"/>
<path id="Vector_3" d="M63.6559 7.79435L66.2223 5.228C66.6227 4.82755 66.6227 4.17828 66.2223 3.77796C65.8217 3.37751 65.1726 3.37751 64.7721 3.77796L62.2058 6.34431C61.8053 6.74476 61.8053 7.39404 62.2058 7.79435C62.6062 8.1948 63.2554 8.19466 63.6559 7.79435Z" fill="var(--fill-0, white)"/>
<path id="Vector_4" d="M56.0764 1.02539V4.65473C56.0764 5.22102 56.5353 5.68012 57.1018 5.68012C57.6682 5.68012 58.1272 5.22102 58.1272 4.65473V1.02539C58.1272 0.459102 57.6682 8.9407e-08 57.1018 8.9407e-08C56.5353 8.9407e-08 56.0764 0.459102 56.0764 1.02539Z" fill="var(--fill-0, white)"/>
<path id="Vector_5" d="M1.02539 13.9236H4.65473C5.22115 13.9236 5.68012 13.4645 5.68012 12.8982C5.68012 12.3319 5.22115 11.8728 4.65473 11.8728H1.02539C0.458965 11.8728 0 12.3319 0 12.8982C0 13.4645 0.458965 13.9236 1.02539 13.9236Z" fill="var(--fill-0, white)"/>
<path id="Vector_6" d="M6.34404 7.79435C6.74449 8.1948 7.39363 8.1948 7.79421 7.79435C8.19466 7.3939 8.19466 6.74476 7.79421 6.34431L5.228 3.77783C4.82742 3.37738 4.17828 3.37724 3.77783 3.77783C3.37738 4.17828 3.37738 4.82742 3.77783 5.22786L6.34404 7.79435Z" fill="var(--fill-0, white)"/>
<path id="Vector_7" d="M12.8982 5.68012C13.4647 5.68012 13.9236 5.22102 13.9236 4.65473V1.02539C13.9236 0.459102 13.4647 8.9407e-08 12.8982 8.9407e-08C12.3318 8.9407e-08 11.8728 0.459102 11.8728 1.02539V4.65473C11.8728 5.22102 12.3318 5.68012 12.8982 5.68012Z" fill="var(--fill-0, white)"/>
</g>
</svg>
