<svg preserveAspectRatio="none" width="100%" height="100%" overflow="visible" style="display: block;" viewBox="0 0 20 19.9657" fill="none" xmlns="http://www.w3.org/2000/svg">
<g id="Group">
<path id="Vector" d="M2.40383 0C1.07544 0 0.000214915 1.07715 0 2.40254C0 3.72921 1.07522 4.80615 2.40404 4.80615C3.72921 4.80615 4.80593 3.72921 4.80593 2.40254C4.80593 1.07694 3.72899 0 2.40383 0Z" fill="var(--fill-0, #0B090A)"/>
<path id="Vector_2" d="M4.47515 6.62939H0.330078V19.9657H4.47515V6.62939Z" fill="var(--fill-0, #0B090A)"/>
<path id="Vector_3" d="M15.0279 6.29766C13.0116 6.29766 11.6596 7.40318 11.1062 8.45154H11.0507V6.62927H7.07522H7.07501V19.9654H11.2164V13.3679C11.2164 11.6286 11.5476 9.94391 13.7041 9.94391C15.8296 9.94391 15.8579 11.9332 15.8579 13.4795V19.9652H20V12.6503C20 9.05975 19.2252 6.29766 15.0279 6.29766Z" fill="var(--fill-0, #0B090A)"/>
</g>
</svg>
