<svg preserveAspectRatio="none" width="100%" height="100%" overflow="visible" style="display: block;" viewBox="0 0 56 56" fill="none" xmlns="http://www.w3.org/2000/svg">
<g id="Frame">
<rect width="56" height="56" rx="28" fill="var(--fill-0, white)"/>
<path id="Vector" d="M38.6 40C35.8222 40 33.0778 39.3944 30.3667 38.1833C27.6556 36.9722 25.1889 35.2556 22.9667 33.0333C20.7444 30.8111 19.0278 28.3444 17.8167 25.6333C16.6056 22.9222 16 20.1778 16 17.4C16 17 16.1333 16.6667 16.4 16.4C16.6667 16.1333 17 16 17.4 16H22.8C23.1111 16 23.3889 16.1056 23.6333 16.3167C23.8778 16.5278 24.0222 16.7778 24.0667 17.0667L24.9333 21.7333C24.9778 22.0889 24.9667 22.3889 24.9 22.6333C24.8333 22.8778 24.7111 23.0889 24.5333 23.2667L21.3 26.5333C21.7444 27.3556 22.2722 28.15 22.8833 28.9167C23.4944 29.6833 24.1667 30.4222 24.9 31.1333C25.5889 31.8222 26.3111 32.4611 27.0667 33.05C27.8222 33.6389 28.6222 34.1778 29.4667 34.6667L32.6 31.5333C32.8 31.3333 33.0611 31.1833 33.3833 31.0833C33.7056 30.9833 34.0222 30.9556 34.3333 31L38.9333 31.9333C39.2444 32.0222 39.5 32.1833 39.7 32.4167C39.9 32.65 40 32.9111 40 33.2V38.6C40 39 39.8667 39.3333 39.6 39.6C39.3333 39.8667 39 40 38.6 40ZM20.0333 24L22.2333 21.8L21.6667 18.6667H18.7C18.8111 19.5778 18.9667 20.4778 19.1667 21.3667C19.3667 22.2556 19.6556 23.1333 20.0333 24ZM31.9667 35.9333C32.8333 36.3111 33.7167 36.6111 34.6167 36.8333C35.5167 37.0556 36.4222 37.2 37.3333 37.2667V34.3333L34.2 33.7L31.9667 35.9333Z" fill="var(--fill-0, #EF4130)"/>
</g>
</svg>
