<svg preserveAspectRatio="none" width="100%" height="100%" overflow="visible" style="display: block;" viewBox="0 0 70 70" fill="none" xmlns="http://www.w3.org/2000/svg">
<g id="fi_9254638">
<path id="Mision" d="M40.201 19.978V9.926C40.2244 9.6162 40.364 9.32668 40.5918 9.11543C40.8196 8.90418 41.1188 8.7868 41.4295 8.7868C41.7402 8.7868 42.0394 8.90418 42.2672 9.11543C42.495 9.32668 42.6346 9.6162 42.658 9.926V12.306C42.6563 12.4055 42.6785 12.504 42.7226 12.5932C42.7668 12.6824 42.8317 12.7597 42.9119 12.8186C42.9921 12.8776 43.0853 12.9165 43.1836 12.932C43.2819 12.9476 43.3825 12.9393 43.477 12.908L49.077 10.451C49.1923 10.4096 49.2921 10.3336 49.3626 10.2333C49.4331 10.1331 49.4709 10.0135 49.4709 9.891C49.4709 9.76845 49.4331 9.64889 49.3626 9.54866C49.2921 9.44843 49.1923 9.37241 49.077 9.331L40.971 5.831C39.487 5.236 40.453 3.031 41.937 3.598L53.837 8.813C54.0596 8.90282 54.2502 9.0571 54.3844 9.25604C54.5187 9.45498 54.5904 9.6895 54.5904 9.9295C54.5904 10.1695 54.5187 10.404 54.3844 10.603C54.2502 10.8019 54.0596 10.9562 53.837 11.046L42.98 15.736C42.8809 15.7781 42.7984 15.8516 42.7453 15.9452C42.6921 16.0388 42.6713 16.1474 42.686 16.254V20.202C42.676 20.2818 42.6841 20.3629 42.7095 20.4392C42.735 20.5155 42.7771 20.5851 42.833 20.643L50.12 28.763C50.197 28.91 50.267 28.98 50.344 29.134L66.444 64.715C66.547 64.9087 66.5957 65.1265 66.5851 65.3456C66.5745 65.5647 66.505 65.7768 66.3838 65.9596C66.2626 66.1424 66.0944 66.2892 65.8967 66.3843C65.6991 66.4794 65.4795 66.5194 65.261 66.5H4.725C4.40939 66.5 4.10671 66.3746 3.88354 66.1515C3.66038 65.9283 3.535 65.6256 3.535 65.31C3.535 64.9944 3.66038 64.6917 3.88354 64.4685C4.10671 64.2454 4.40939 64.12 4.725 64.12H7.035C7.19457 64.1165 7.34894 64.0626 7.476 63.966L17.745 54.292C17.8352 54.1889 17.8872 54.0579 17.892 53.921L19.992 41.713C19.9994 41.5704 20.0361 41.4309 20.1 41.3032C20.1638 41.1756 20.2534 41.0624 20.363 40.971L26.908 35.238C27.0395 35.1028 27.2002 34.9996 27.3778 34.9363C27.5555 34.8731 27.7453 34.8514 27.9326 34.8731C28.1199 34.8947 28.2998 34.9591 28.4583 35.0612C28.6168 35.1633 28.7498 35.3004 28.847 35.462L37.8 51.1C37.8868 51.2347 37.9442 51.3861 37.9685 51.5444C37.9929 51.7027 37.9836 51.8644 37.9414 52.0189C37.8991 52.1734 37.8248 52.3173 37.7233 52.4412C37.6217 52.5651 37.4952 52.6662 37.352 52.738C37.2167 52.8204 37.066 52.8743 36.9091 52.8963C36.7523 52.9183 36.5925 52.908 36.4398 52.8661C36.287 52.8241 36.1445 52.7514 36.0209 52.6523C35.8973 52.5532 35.7952 52.4299 35.721 52.29L27.783 38.584C27.737 38.5117 27.6762 38.4499 27.6047 38.4027C27.5331 38.3555 27.4525 38.324 27.3679 38.3101C27.2833 38.2962 27.1968 38.3004 27.1139 38.3222C27.031 38.3441 26.9537 38.3832 26.887 38.437L22.4 42.385C22.3065 42.4963 22.231 42.6215 22.176 42.756L20.195 54.964C20.1577 55.2338 20.0263 55.4817 19.824 55.664C17.297 58.198 14.546 60.655 11.942 63.112C11.8545 63.198 11.795 63.3084 11.7713 63.4288C11.7476 63.5492 11.7609 63.674 11.8093 63.7867C11.8577 63.8995 11.9391 63.9949 12.0427 64.0607C12.1463 64.1264 12.2674 64.1593 12.39 64.155H40.796C40.9054 64.1574 41.0133 64.1296 41.108 64.0746C41.2026 64.0196 41.2802 63.9396 41.3323 63.8434C41.3844 63.7472 41.4089 63.6384 41.4032 63.5292C41.3975 63.4199 41.3618 63.3143 41.3 63.224L38.64 57.568C38.5286 57.34 38.4903 57.0831 38.5304 56.8325C38.5705 56.582 38.687 56.3499 38.864 56.168L47.194 47.6C47.2672 47.538 47.3202 47.4556 47.3464 47.3634C47.3726 47.2711 47.3707 47.1732 47.341 47.082L41.097 25.41C41.0638 25.2947 40.9977 25.1916 40.9068 25.1134C40.8159 25.0351 40.7041 24.9851 40.5852 24.9695C40.4662 24.9539 40.3453 24.9734 40.2373 25.0255C40.1293 25.0776 40.0388 25.1602 39.977 25.263L33.362 36.722C33.2793 36.8599 33.1702 36.9801 33.041 37.0759C32.9118 37.1716 32.765 37.2409 32.609 37.2799C32.453 37.3189 32.2908 37.3268 32.1318 37.3032C31.9727 37.2795 31.8199 37.2247 31.682 37.142C31.5441 37.0593 31.4239 36.9502 31.3281 36.821C31.2324 36.6918 31.1631 36.545 31.1241 36.389C31.0851 36.233 31.0772 36.0708 31.1008 35.9118C31.1245 35.7527 31.1793 35.5999 31.262 35.462L40.124 20.3C40.201 20.23 40.201 20.153 40.201 20.006V19.978ZM44.8 64.12H62.44C62.5454 64.1171 62.6485 64.0888 62.7407 64.0377C62.8329 63.9866 62.9115 63.9141 62.9698 63.8263C63.0281 63.7384 63.0645 63.6379 63.0758 63.5331C63.0872 63.4283 63.0732 63.3223 63.035 63.224L48.23 30.324L48.083 30.177L45.332 27.048C45.2353 26.952 45.1099 26.8903 44.9748 26.8724C44.8398 26.8545 44.7025 26.8813 44.5842 26.9488C44.4659 27.0163 44.3729 27.1208 44.3196 27.2462C44.2663 27.3715 44.2555 27.5109 44.289 27.643L49.945 47.369C50.0117 47.5756 50.0189 47.7968 49.9657 48.0073C49.9124 48.2178 49.8009 48.409 49.644 48.559L41.468 56.959C41.3678 57.0417 41.2981 57.1555 41.2702 57.2824C41.2423 57.4093 41.2577 57.5419 41.314 57.659L44.219 63.763C44.2817 63.8675 44.3684 63.9557 44.4718 64.0202C44.5753 64.0847 44.6925 64.1237 44.814 64.134L44.8 64.12Z" fill="var(--fill-0, white)"/>
</g>
</svg>
