<svg preserveAspectRatio="none" width="100%" height="100%" overflow="visible" style="display: block;" viewBox="0 0 64 64" fill="none" xmlns="http://www.w3.org/2000/svg">
<g id="fi_2177382">
<path id="Vector" d="M60.5609 36.0411C62.508 35.7266 64 34.0346 64 32C64 29.9654 62.508 28.2734 60.5609 27.9589C59.7375 22.1125 57.0966 16.6036 53.0469 12.2791L57.7519 7.57412C58.378 7.96312 59.116 8.1885 59.9058 8.1885C62.1634 8.1885 64 6.35188 64 4.09425C64 1.83663 62.1634 0 59.9058 0C57.6481 0 55.8115 1.83663 55.8115 4.09425C55.8115 4.88413 56.0369 5.622 56.4259 6.24813L51.7209 10.9531C47.3964 6.90338 41.8876 4.2625 36.0411 3.43913C35.7266 1.492 34.0346 0 32 0C29.9654 0 28.2734 1.492 27.9589 3.43913C22.1124 4.2625 16.6036 6.90338 12.2791 10.9532L7.57412 6.24825C7.96312 5.62213 8.18863 4.88413 8.18863 4.09438C8.1885 1.83663 6.35188 0 4.09425 0C1.83663 0 0 1.83663 0 4.09425C0 6.35188 1.83663 8.1885 4.09425 8.1885C4.88413 8.1885 5.622 7.96312 6.24825 7.574L10.9532 12.279C6.9035 16.6035 4.2625 22.1124 3.43925 27.9587C1.492 28.2734 0 29.9654 0 32C0 34.0346 1.492 35.7266 3.43913 36.0411C4.26238 41.8875 6.90338 47.3964 10.9531 51.7209L6.24813 56.4259C5.62188 56.0369 4.884 55.8114 4.09412 55.8114C1.83662 55.8115 0 57.6483 0 59.9058C0 62.1633 1.83663 64 4.09425 64C6.35188 64 8.1885 62.1634 8.1885 59.9058C8.1885 59.1159 7.96312 58.378 7.574 57.7519L12.279 53.0469C16.6035 57.0966 22.1124 59.7376 27.9587 60.5609C28.2734 62.508 29.9654 64 32 64C34.0346 64 35.7266 62.508 36.0411 60.5609C41.8875 59.7375 47.3964 57.0966 51.7209 53.0469L56.4259 57.7519C56.0369 58.3781 55.8115 59.116 55.8115 59.9058C55.8115 62.1634 57.6481 64 59.9058 64C62.1634 64 64 62.1634 64 59.9058C64 57.6481 62.1634 55.8115 59.9058 55.8115C59.1159 55.8115 58.378 56.0369 57.7519 56.4259L53.0469 51.7209C57.0966 47.3964 59.7375 41.8876 60.5609 36.0411ZM32 55.8115C30.1673 55.8115 28.612 57.022 28.0915 58.6855C16.4056 56.9809 7.01912 47.5943 5.3145 35.9085C6.978 35.388 8.1885 33.8327 8.1885 32C8.1885 30.1673 6.978 28.612 5.3145 28.0915C7.01912 16.4057 16.4057 7.01912 28.0915 5.3145C28.612 6.978 30.1673 8.1885 32 8.1885C33.8327 8.1885 35.388 6.978 35.9085 5.3145C47.5943 7.019 56.981 16.4057 58.6855 28.0915C57.022 28.612 55.8115 30.1673 55.8115 32C55.8115 33.8327 57.022 35.388 58.6855 35.9085C56.981 47.5943 47.5943 56.981 35.9085 58.6855C35.388 57.022 33.8327 55.8115 32 55.8115ZM62.125 32C62.125 33.2236 61.1294 34.2192 59.9058 34.2192C58.6821 34.2192 57.6865 33.2236 57.6865 32C57.6865 30.7764 58.6821 29.7808 59.9058 29.7808C61.1294 29.7808 62.125 30.7764 62.125 32ZM59.9058 1.875C61.1294 1.875 62.125 2.87063 62.125 4.09425C62.125 5.31788 61.1294 6.3135 59.9058 6.3135C58.6821 6.3135 57.6865 5.31788 57.6865 4.09425C57.6865 2.87063 58.6821 1.875 59.9058 1.875ZM32 1.875C33.2236 1.875 34.2192 2.87063 34.2192 4.09425C34.2192 5.31788 33.2236 6.3135 32 6.3135C30.7763 6.3135 29.7808 5.31788 29.7808 4.09425C29.7808 2.87063 30.7763 1.875 32 1.875ZM1.875 4.09425C1.875 2.87063 2.8705 1.875 4.09425 1.875C5.318 1.875 6.3135 2.87063 6.3135 4.09425C6.3135 5.31788 5.318 6.3135 4.09425 6.3135C2.8705 6.3135 1.875 5.31788 1.875 4.09425ZM1.875 32C1.875 30.7764 2.8705 29.7808 4.09425 29.7808C5.318 29.7808 6.3135 30.7764 6.3135 32C6.3135 33.2236 5.318 34.2192 4.09425 34.2192C2.8705 34.2192 1.875 33.2236 1.875 32ZM4.09425 62.125C2.8705 62.125 1.875 61.1294 1.875 59.9058C1.875 58.6821 2.8705 57.6865 4.09425 57.6865C5.318 57.6865 6.3135 58.6821 6.3135 59.9058C6.3135 61.1294 5.318 62.125 4.09425 62.125ZM32 62.125C30.7763 62.125 29.7808 61.1294 29.7808 59.9058C29.7808 58.6821 30.7763 57.6865 32 57.6865C33.2236 57.6865 34.2192 58.6821 34.2192 59.9058C34.2192 61.1294 33.2236 62.125 32 62.125ZM62.125 59.9058C62.125 61.1294 61.1294 62.125 59.9058 62.125C58.6821 62.125 57.6865 61.1294 57.6865 59.9058C57.6865 58.6821 58.6821 57.6865 59.9058 57.6865C61.1294 57.6865 62.125 58.6821 62.125 59.9058Z" fill="var(--fill-0, white)"/>
<path id="Vector_2" d="M50.4015 38.7475C49.9246 38.5462 49.3746 38.7693 49.173 39.2462C48.5639 40.688 47.7869 42.0216 46.8736 43.2325C45.3679 42.235 43.7341 41.3984 42.0111 40.7339C42.6147 38.3138 42.9626 35.6735 43.0274 32.9376H50.6097C50.5716 33.7037 50.488 34.4667 50.3577 35.2157C50.2691 35.7257 50.6107 36.2112 51.1209 36.3C51.1752 36.3093 51.2291 36.3139 51.2825 36.3139C51.7297 36.3139 52.1257 35.9926 52.2051 35.5367C52.4066 34.3768 52.509 33.187 52.509 32.0001C52.509 27.0722 50.7616 22.5452 47.8545 19.0048C47.844 18.988 47.8339 18.9708 47.822 18.9545C47.7814 18.8978 47.7352 18.8476 47.6854 18.803C43.9204 14.3348 38.2864 11.4907 31.9997 11.4907C24.8882 11.4907 18.3862 15.0931 14.6066 21.1272C14.3317 21.5661 14.4646 22.1446 14.9035 22.4195C15.3425 22.6941 15.921 22.5613 16.1956 22.1226C16.4886 21.6548 16.8009 21.2046 17.1286 20.7696C18.6336 21.7662 20.2664 22.6022 21.9882 23.2663C21.3846 25.6863 21.0367 28.3267 20.972 31.0626H13.3894C13.477 29.2897 13.8127 27.5512 14.3924 25.8826C14.5622 25.3936 14.3036 24.8592 13.8144 24.6893C13.3257 24.5193 12.7911 24.7781 12.6212 25.2673C11.8707 27.4275 11.4902 29.6927 11.4902 32.0001C11.4902 36.928 13.2376 41.4552 16.1449 44.9956C16.1554 45.0125 16.1655 45.0295 16.1772 45.0458C16.2179 45.1025 16.264 45.1526 16.3137 45.1974C20.079 49.6655 25.713 52.5096 31.9996 52.5096C40.2646 52.5096 47.6835 47.59 50.9001 39.976C51.1016 39.499 50.8784 38.949 50.4015 38.7475ZM40.2341 40.1189C37.9034 39.4029 35.4421 38.9903 32.9372 38.9077V32.9376H41.1522C41.0899 35.4617 40.7761 37.8922 40.2341 40.1189ZM13.3889 32.9376H20.972C21.0367 35.6735 21.3846 38.314 21.9882 40.7339C20.2692 41.3969 18.639 42.2311 17.136 43.2256C14.9472 40.3346 13.5806 36.7884 13.3889 32.9376ZM22.8474 32.9376H31.0622V38.9077C28.5574 38.9903 26.0961 39.4029 23.7654 40.1189C23.2235 37.8922 22.9097 35.4617 22.8474 32.9376ZM31.0622 40.7833V50.5327C29.0741 50.1049 27.1942 48.3241 25.6899 45.4095C25.1412 44.3466 24.668 43.1755 24.2712 41.9233C26.4374 41.2537 28.7281 40.8656 31.0622 40.7833ZM32.9372 50.5327V40.7833C35.2714 40.8656 37.5621 41.2537 39.7282 41.9235C39.3315 43.1756 38.8582 44.3467 38.3096 45.4096C36.8052 48.3241 34.9254 50.1049 32.9372 50.5327ZM38.3096 18.5907C38.8582 19.6536 39.3315 20.8246 39.7282 22.0767C37.5621 22.7465 35.2714 23.1346 32.9372 23.2168V13.4675C34.9254 13.8953 36.8052 15.6761 38.3096 18.5907ZM31.0622 13.4675V23.2168C28.7281 23.1346 26.4374 22.7465 24.2712 22.0767C24.668 20.8246 25.1412 19.6535 25.6899 18.5906C27.1942 15.6761 29.0741 13.8953 31.0622 13.4675ZM32.9372 25.0925C35.4421 25.0098 37.9034 24.5973 40.2341 23.8813C40.776 26.108 41.0899 28.5385 41.1522 31.0626H32.9372V25.0925ZM50.6106 31.0626H43.0275C42.9627 28.3267 42.6149 25.6862 42.0112 23.2662C43.7302 22.6032 45.3605 21.769 46.8635 20.7746C49.0522 23.6656 50.4189 27.2118 50.6106 31.0626ZM45.649 19.3286C44.3561 20.1663 42.9635 20.8783 41.4982 21.4555C41.0727 20.1206 40.564 18.8702 39.9757 17.7307C39.2556 16.3355 38.4444 15.158 37.5642 14.2145C40.6932 15.1955 43.4689 16.9817 45.649 19.3286ZM18.3377 19.3205C20.5589 16.918 23.3505 15.1643 26.4441 14.2051C25.5605 15.1502 24.7462 16.3307 24.0237 17.7307C23.4356 18.8703 22.9267 20.1206 22.5012 21.4556C21.0312 20.8765 19.6342 20.1617 18.3377 19.3205ZM23.7654 23.8813C26.0961 24.5973 28.5572 25.0098 31.0622 25.0925V31.0626H22.8474C22.9097 28.5385 23.2235 26.108 23.7654 23.8813ZM18.3505 44.6716C19.6434 43.8339 21.036 43.1217 22.5012 42.5446C22.9267 43.8795 23.4355 45.1298 24.0237 46.2695C24.7439 47.6647 25.555 48.8422 26.4351 49.7857C23.3062 48.8047 20.5307 47.0185 18.3505 44.6716ZM37.5616 49.7886C38.4427 48.8446 39.2549 47.6662 39.9757 46.2696C40.5639 45.13 41.0727 43.8797 41.4982 42.5447C42.9682 43.1237 44.3652 43.8385 45.6617 44.6799C43.4572 47.057 40.6661 48.8212 37.5616 49.7886Z" fill="var(--fill-0, white)"/>
</g>
</svg>
