<svg preserveAspectRatio="none" width="100%" height="100%" overflow="visible" style="display: block;" viewBox="0 0 23.5 24" fill="none" xmlns="http://www.w3.org/2000/svg">
<path id="Subtract" fill-rule="evenodd" clip-rule="evenodd" d="M3.99346 0C1.78793 0 0 1.79086 0 4V20C0 22.2091 1.78794 24 3.99346 24H19.5065C21.7121 24 23.5 22.2091 23.5 20V4C23.5 1.79086 21.7121 0 19.5065 0H3.99346ZM3.22522 5.3688C3.22522 6.57551 4.13862 7.45735 5.26532 7.45735C6.3922 7.45735 7.30559 6.57551 7.30559 5.3688C7.30559 4.16226 6.3922 3.27942 5.26532 3.27942C4.13862 3.27942 3.22522 4.16226 3.22522 5.3688ZM16.5419 20.6262H20.0806V13.4776C20.0806 9.94706 17.9468 8.74288 15.9722 8.74288C14.1464 8.74288 12.9061 9.95765 12.5637 10.6692V9.06775H9.1605V20.6262H12.6992V14.3596C12.6992 12.6887 13.7285 11.8761 14.7785 11.8761C15.7717 11.8761 16.5419 12.4506 16.5419 14.3132V20.6262ZM7.03458 9.05884V20.6173H3.49607V9.05884H7.03458Z" fill="var(--fill-0, white)"/>
</svg>
