<svg preserveAspectRatio="none" width="100%" height="100%" overflow="visible" style="display: block;" viewBox="0 0 57.6094 55.8529" fill="none" xmlns="http://www.w3.org/2000/svg">
<g id="Group">
<path id="Vector" d="M54.0688 13.1537C52.7241 13.1537 49.6815 13.1743 49.6815 13.1743C49.6815 13.1743 49.7185 15.6743 49.6784 17.826C51.5891 32.282 46.0842 41.1588 35.4247 45.9919C21.7216 52.2183 7.60349 45.5725 2.58243 34.6213C2.54751 34.4482 2.3133 34.0627 2.27221 34.0339C2.0339 33.7752 1.69389 33.6083 1.31484 33.6083C0.586543 33.6083 0 34.1988 0 34.9243C0 35.1376 0.05547 35.3323 0.144838 35.5147C9.61068 60.4036 33.8705 58.3457 44.6954 50.8065C55.3127 43.4167 62.1355 27.9724 54.0688 13.1537Z" fill="var(--fill-0, #EE402F)"/>
<path id="Vector_2" d="M17.9547 3.65934C17.9896 3.65934 18.0255 3.6511 18.0605 3.64594C18.1108 3.63255 18.1591 3.62224 18.2074 3.61606C21.8047 2.87409 25.0004 2.88234 27.0004 3.23889C34.1714 4.50127 38.2967 6.39431 43.8704 11.8251C43.8766 11.8364 48.3306 11.8251 48.3306 11.8251V8.98605C44.3665 4.36524 36.2751 -0.00308989 28.1406 1.63996e-06C24.6213 1.63996e-06 21.2243 0.498768 17.7472 1.88274C17.6619 1.90541 17.5838 1.93633 17.5088 1.97549C17.2397 2.13213 17.0579 2.42273 17.0579 2.75971C17.0589 3.25023 17.4616 3.65934 17.9547 3.65934Z" fill="var(--fill-0, #EE402F)"/>
<path id="Vector_3" d="M13.2891 36.1279C13.3302 36.1403 13.3805 36.1485 13.4257 36.1485C13.4463 36.1485 13.4627 36.1423 13.4843 36.1403C30.005 36.9204 41.6948 28.0147 48.3317 20.7372V13.1723C48.3317 13.1723 46.7169 13.1537 45.1863 13.1537C40.4221 17.5035 28.2362 22.3366 17.0138 21.1762C16.9655 21.168 16.9213 21.1639 16.8679 21.1639C16.8648 21.1639 16.8618 21.1659 16.8576 21.1659C16.5978 21.167 16.3769 21.3257 16.2773 21.539C16.2403 21.6142 16.2218 21.6997 16.2156 21.777C15.6301 24.1255 13.6609 32.0234 12.8392 35.2231C12.8094 35.2901 12.7888 35.3653 12.7827 35.4344C12.7827 35.456 12.7765 35.4776 12.7765 35.491C12.7755 35.8074 12.9963 36.0712 13.2891 36.1279Z" fill="var(--fill-0, #EE402F)"/>
</g>
</svg>
