<svg preserveAspectRatio="none" width="100%" height="100%" overflow="visible" style="display: block;" viewBox="0 0 8.09243 7.99057" fill="none" xmlns="http://www.w3.org/2000/svg">
<g id="Group">
<path id="Vector" d="M4.04622 7.99057C1.8151 7.99057 0 6.19851 0 3.99528C0 1.79206 1.8151 0 4.04622 0C6.27735 0 8.09243 1.79206 8.09243 3.99528C8.09243 6.19851 6.27632 7.99057 4.04622 7.99057ZM4.04622 0.382318C2.02568 0.382318 0.381095 2.00331 0.381095 3.99528C0.381095 5.98726 2.02465 7.60825 4.04622 7.60825C6.06677 7.60825 7.71031 5.98726 7.71031 3.99528C7.71031 2.00331 6.06677 0.382318 4.04622 0.382318Z" fill="var(--fill-0, white)"/>
<g id="Group_2">
<path id="Vector_2" d="M2.3913 1.78702H4.09546C4.3194 1.78702 4.53203 1.80866 4.73234 1.85194C4.93367 1.89522 5.10933 1.96839 5.26136 2.07041C5.41236 2.17243 5.53254 2.30949 5.62191 2.48261C5.71128 2.65574 5.75544 2.87008 5.75544 3.12874C5.75544 3.44098 5.6743 3.70582 5.51302 3.92429C5.35175 4.14276 5.1155 4.28085 4.80425 4.33959L5.92391 6.20481H4.7611L3.84072 4.43955H3.36203V6.20481H2.39233V1.78702H2.3913ZM3.361 3.61514H3.93316C4.02047 3.61514 4.1119 3.61205 4.20948 3.60587C4.30707 3.59968 4.39438 3.58113 4.47347 3.54919C4.55154 3.51827 4.61729 3.46881 4.66968 3.40286C4.72207 3.3369 4.74775 3.24313 4.74775 3.12153C4.74775 3.0092 4.72514 2.91955 4.67892 2.8536C4.63372 2.78764 4.57518 2.73612 4.50532 2.70108C4.43445 2.66604 4.3533 2.64131 4.2629 2.62894C4.17148 2.61658 4.0821 2.61039 3.99581 2.61039H3.36203V3.61514H3.361Z" fill="var(--fill-0, white)"/>
</g>
</g>
</svg>
