<svg preserveAspectRatio="none" width="100%" height="100%" overflow="visible" style="display: block;" viewBox="0 0 5.95514 5.88018" fill="none" xmlns="http://www.w3.org/2000/svg">
<g id="Group">
<path id="Vector" d="M2.97758 5.88018C1.33571 5.88018 0 4.56142 0 2.94009C0 1.31876 1.33571 0 2.97758 0C4.61944 0 5.95514 1.31876 5.95514 2.94009C5.95514 4.56142 4.61868 5.88018 2.97758 5.88018ZM2.97758 0.281344C1.49068 0.281344 0.280444 1.47422 0.280444 2.94009C0.280444 4.40596 1.48992 5.59884 2.97758 5.59884C4.46447 5.59884 5.67394 4.40596 5.67394 2.94009C5.67394 1.47422 4.46447 0.281344 2.97758 0.281344Z" fill="var(--fill-0, #686C78)"/>
<g id="Group_2">
<path id="Vector_2" d="M1.75978 1.31496H3.01386C3.17865 1.31496 3.33512 1.33089 3.48253 1.36274C3.63069 1.39459 3.75995 1.44843 3.87183 1.52351C3.98295 1.59858 4.07139 1.69944 4.13716 1.82684C4.20292 1.95425 4.23542 2.11198 4.23542 2.30232C4.23542 2.5321 4.1757 2.727 4.05702 2.88776C3.93834 3.04853 3.76449 3.15015 3.53545 3.19338L4.35939 4.56597H3.50369L2.82639 3.26693H2.47413V4.56597H1.76053V1.31496H1.75978ZM2.47337 2.66026H2.89442C2.95867 2.66026 3.02595 2.65799 3.09776 2.65344C3.16958 2.64889 3.23383 2.63524 3.29203 2.61173C3.34948 2.58898 3.39786 2.55258 3.43642 2.50404C3.47497 2.45551 3.49387 2.3865 3.49387 2.29702C3.49387 2.21436 3.47723 2.14838 3.44322 2.09985C3.40996 2.05131 3.36687 2.0134 3.31547 1.98761C3.26331 1.96183 3.2036 1.94363 3.13707 1.93453C3.0698 1.92543 3.00402 1.92088 2.94053 1.92088H2.47413V2.66026H2.47337Z" fill="var(--fill-0, #686C78)"/>
</g>
</g>
</svg>
