<svg preserveAspectRatio="none" width="100%" height="100%" overflow="visible" style="display: block;" viewBox="0 0 121.765 23.3733" fill="none" xmlns="http://www.w3.org/2000/svg">
<g id="Group">
<path id="Vector" d="M0.00102822 9.54382e-05H7.57267C9.40626 9.54382e-05 11.1484 0.206196 12.7981 0.61737C14.4489 1.02854 15.888 1.69425 17.1186 2.61347C18.3482 3.53371 19.3241 4.7291 20.0472 6.20067C20.7694 7.67224 21.131 9.45811 21.131 11.5573C21.131 13.4184 20.7807 15.0579 20.0791 16.4749C19.3775 17.8928 18.4335 19.0831 17.2481 20.0456C16.0616 21.0091 14.6913 21.7387 13.1381 22.2364C11.585 22.7342 9.95582 22.9835 8.25166 22.9835H0V9.54382e-05H0.00102822ZM5.04878 18.3092H7.67025C8.83512 18.3092 9.91884 18.1906 10.9224 17.9516C11.926 17.7135 12.794 17.3188 13.5275 16.7665C14.2609 16.2141 14.8382 15.4897 15.2583 14.5911C15.6795 13.6935 15.889 12.595 15.889 11.2965C15.889 10.1712 15.6785 9.19224 15.2583 8.35856C14.8382 7.52591 14.2712 6.83856 13.5593 6.29754C12.8474 5.75652 12.0113 5.35153 11.0519 5.08051C10.0914 4.80948 9.08269 4.67449 8.0267 4.67449H5.04981V18.3092H5.04878Z" fill="var(--fill-0, white)"/>
<path id="Vector_2" d="M33.815 21.003H33.7502C33.211 21.847 32.4929 22.453 31.5982 22.8209C30.7035 23.1888 29.7595 23.3732 28.7672 23.3732C28.0338 23.3732 27.327 23.2702 26.648 23.0651C25.968 22.86 25.3702 22.5519 24.8525 22.1397C24.3347 21.7285 23.9249 21.2205 23.6229 20.6135C23.3209 20.0076 23.1699 19.3037 23.1699 18.503C23.1699 17.5941 23.3363 16.8264 23.6712 16.1978C24.005 15.5702 24.458 15.0508 25.0302 14.6397C25.6013 14.2285 26.2546 13.909 26.9881 13.6823C27.7215 13.4556 28.4816 13.2876 29.2695 13.1794C30.0564 13.0712 30.8442 13.0063 31.6311 12.9847C32.419 12.963 33.1473 12.9527 33.816 12.9527C33.816 12.0871 33.5088 11.3997 32.8935 10.8907C32.2793 10.3826 31.551 10.1281 30.7097 10.1281C29.9115 10.1281 29.1832 10.2961 28.5258 10.631C27.8674 10.9669 27.2798 11.4265 26.7621 12.0108L24.1735 9.34901C25.0795 8.50503 26.1365 7.87229 27.3445 7.44979C28.5525 7.02831 29.8037 6.81705 31.098 6.81705C32.5217 6.81705 33.6917 6.99533 34.609 7.35292C35.5263 7.7105 36.2597 8.23503 36.8093 8.92754C37.3589 9.62004 37.742 10.4692 37.9577 11.476C38.1735 12.4828 38.2823 13.6462 38.2823 14.9653V22.9837H33.817V21.003H33.815ZM32.6172 16.069C32.2505 16.069 31.7924 16.0855 31.2428 16.1174C30.6932 16.1493 30.1642 16.2421 29.6578 16.3936C29.1504 16.5451 28.7189 16.7728 28.3635 17.0747C28.0071 17.3777 27.8293 17.8002 27.8293 18.3412C27.8293 18.9255 28.0769 19.3594 28.5731 19.6397C29.0692 19.921 29.5869 20.0622 30.1262 20.0622C30.5998 20.0622 31.0589 19.9973 31.5017 19.8674C31.9434 19.7376 32.3368 19.5542 32.683 19.3161C33.0271 19.0781 33.3024 18.7751 33.5078 18.4072C33.7122 18.0393 33.815 17.6065 33.815 17.1088V16.07H32.6172V16.069Z" fill="var(--fill-0, white)"/>
<path id="Vector_3" d="M46.1756 0V9.34981H46.2403C46.3482 9.04684 46.532 8.74387 46.7909 8.4409C47.0498 8.13793 47.362 7.86794 47.7288 7.62989C48.0955 7.39184 48.5269 7.19708 49.0231 7.04559C49.5192 6.89411 50.0585 6.81785 50.6409 6.81785C51.8705 6.81785 52.8628 7.00746 53.6178 7.38566C54.3728 7.76386 54.9604 8.28942 55.3816 8.96028C55.8017 9.63114 56.0883 10.4215 56.2393 11.3305C56.3893 12.2394 56.4653 13.2245 56.4653 14.2849V22.9855H51.6117V15.2598C51.6117 14.8053 51.5952 14.3344 51.5634 13.848C51.5305 13.3606 51.4339 12.9123 51.2716 12.5011C51.1104 12.0899 50.8618 11.754 50.5269 11.4943C50.192 11.2346 49.7123 11.1048 49.0868 11.1048C48.4612 11.1048 47.9537 11.2181 47.5654 11.4459C47.1771 11.6736 46.8803 11.9766 46.6759 12.3548C46.4704 12.734 46.3359 13.1617 46.2711 13.6367C46.2064 14.1128 46.1735 14.6106 46.1735 15.1299V22.9855H41.3199V0H46.1756Z" fill="var(--fill-0, white)"/>
<path id="Vector_4" d="M60.5104 2.04565H66.76L75.6331 16.5954H75.6917V2.04565H80.2905V22.9835H74.2772L65.1688 8.07928H65.1093V22.9835H60.5104V2.04565Z" fill="var(--fill-0, white)"/>
<path id="Vector_5" d="M91.4032 2.04565H95.206L104.286 22.9835H99.0971L97.2984 18.5472H89.1916L87.4525 22.9835H82.3822L91.4032 2.04565ZM93.1721 8.13802L90.6369 14.6447H95.737L93.1721 8.13802Z" fill="var(--fill-0, white)"/>
<path id="Vector_6" d="M109.326 14.0521L101.485 2.04565H107.204L111.625 9.88267L116.312 2.04565H121.765L113.925 14.0521V22.9835H109.326V14.0521Z" fill="var(--fill-0, white)"/>
</g>
</svg>
