<svg preserveAspectRatio="none" width="100%" height="100%" overflow="visible" style="display: block;" viewBox="0 0 77.9446 8.97877" fill="none" xmlns="http://www.w3.org/2000/svg">
<g id="Group">
<path id="Vector" d="M7.43524 8.21284C6.96506 8.47599 6.46993 8.66936 5.9491 8.79297C5.42902 8.91658 4.9029 8.97877 4.37073 8.97877C3.73122 8.97877 3.14539 8.87411 2.61322 8.66557C2.08105 8.45703 1.62069 8.16279 1.23139 7.78362C0.842095 7.40521 0.539726 6.9502 0.323533 6.42088C0.107339 5.89156 5.64423e-07 5.30536 5.64423e-07 4.66305C5.64423e-07 4.0139 0.113385 3.42391 0.340917 2.89459C0.56845 2.36451 0.882159 1.91254 1.28355 1.53716C1.68419 1.16178 2.1506 0.869819 2.68276 0.661275C3.21493 0.452731 3.78868 0.348079 4.40551 0.348079C4.94524 0.348079 5.4638 0.429221 5.96044 0.591506C6.45784 0.753792 6.90307 1.0321 7.29615 1.42644L6.56745 2.19237C6.29002 1.89055 5.95288 1.65849 5.55527 1.49621C5.15841 1.33392 4.75172 1.25278 4.33521 1.25278C3.86502 1.25278 3.42961 1.33772 3.02897 1.50758C2.62834 1.67745 2.2791 1.9133 1.98278 2.21512C1.6857 2.51694 1.45439 2.87639 1.28885 3.29424C1.1233 3.71208 1.04014 4.16861 1.04014 4.66305C1.04014 5.15066 1.12254 5.60263 1.28885 6.02047C1.45439 6.43832 1.6857 6.80005 1.98278 7.1049C2.27986 7.41051 2.6359 7.64788 3.05241 7.8185C3.46892 7.98837 3.92701 8.07331 4.42818 8.07331C4.75928 8.07331 5.10625 8.03236 5.46909 7.95121C5.83118 7.87007 6.16303 7.75253 6.46313 7.59782V5.08089H4.57861V4.17619H7.43449V8.21284H7.43524Z" fill="var(--fill-0, #EE402F)"/>
<path id="Vector_2" d="M9.30841 4.62816C9.30841 4.38094 9.30086 4.14889 9.28574 3.932C9.26986 3.71588 9.2623 3.51795 9.2623 3.3405H10.118C10.118 3.48762 10.1218 3.63473 10.1293 3.78109C10.1369 3.92821 10.1407 4.07836 10.1407 4.23382H10.1641C10.2261 4.10263 10.3123 3.97447 10.4242 3.85086C10.536 3.72725 10.6691 3.61729 10.8233 3.52022C10.9775 3.42316 11.1506 3.34581 11.3434 3.28817C11.5361 3.22978 11.744 3.20096 11.9677 3.20096C12.0297 3.20096 12.091 3.20475 12.1529 3.21234C12.2149 3.21992 12.2762 3.23509 12.3381 3.2586L12.2807 4.17467C12.1265 4.12841 11.9647 4.1049 11.7954 4.1049C11.2406 4.1049 10.8376 4.28463 10.5867 4.64409C10.3365 5.00354 10.211 5.49646 10.211 6.12285V8.76795H9.30917V4.62816H9.30841Z" fill="var(--fill-0, #EE402F)"/>
<path id="Vector_3" d="M12.8582 6.05536C12.8582 5.63069 12.9315 5.24318 13.0782 4.8951C13.2248 4.54702 13.4252 4.24747 13.6792 3.99646C13.9339 3.74545 14.2378 3.5498 14.5923 3.41102C14.9468 3.27149 15.3324 3.20248 15.7489 3.20248C16.1654 3.20248 16.5509 3.27225 16.9054 3.41102C17.26 3.55056 17.5646 3.74545 17.8186 3.99646C18.0726 4.24747 18.2736 4.54778 18.4195 4.8951C18.5662 5.24318 18.6395 5.62993 18.6395 6.05536C18.6395 6.48079 18.5662 6.86754 18.4195 7.21562C18.2729 7.5637 18.0726 7.86324 17.8186 8.11425C17.5638 8.36527 17.2592 8.56092 16.9054 8.6997C16.5509 8.83923 16.1654 8.90824 15.7489 8.90824C15.3324 8.90824 14.9468 8.83847 14.5923 8.6997C14.2378 8.56016 13.9331 8.36527 13.6792 8.11425C13.4244 7.86324 13.2241 7.56294 13.0782 7.21562C12.9315 6.86754 12.8582 6.48079 12.8582 6.05536ZM13.8296 6.05536C13.8296 6.34125 13.8742 6.60667 13.9626 6.8501C14.0511 7.09353 14.1803 7.30662 14.3504 7.48862C14.5197 7.67063 14.7223 7.8132 14.9574 7.91785C15.1925 8.0225 15.4563 8.07482 15.7496 8.07482C16.0422 8.07482 16.3067 8.0225 16.5418 7.91785C16.7769 7.8132 16.9795 7.67063 17.1488 7.48862C17.3182 7.30662 17.4474 7.09429 17.5359 6.8501C17.6243 6.60667 17.6689 6.34201 17.6689 6.05536C17.6689 5.76947 17.6243 5.5048 17.5359 5.26061C17.4474 5.01719 17.3182 4.80409 17.1488 4.62209C16.9795 4.44085 16.7769 4.29752 16.5418 4.19287C16.3067 4.08822 16.0429 4.0359 15.7496 4.0359C15.4563 4.0359 15.1925 4.08822 14.9574 4.19287C14.7223 4.29752 14.5197 4.44009 14.3504 4.62209C14.1803 4.80409 14.0518 5.01643 13.9626 5.26061C13.8734 5.50404 13.8296 5.76947 13.8296 6.05536Z" fill="var(--fill-0, #EE402F)"/>
<path id="Vector_4" d="M25.8434 8.76946H24.953L23.4154 4.59327H23.392L22.0275 8.76946H21.1023L19.3448 3.3405H20.3388L21.5763 7.51668H21.5997L22.9989 3.3405H23.9468L25.3687 7.51668H25.3922L26.6175 3.3405H27.5889L25.8434 8.76946Z" fill="var(--fill-0, #EE402F)"/>
<path id="Vector_5" d="M37.4756 1.46132H34.7701V8.76946H33.7988V1.46132H31.0933V0.556623H37.4763V1.46132H37.4756Z" fill="var(--fill-0, #EE402F)"/>
<path id="Vector_6" d="M38.4583 8.0851e-07H39.3601V4.09504H39.3835C39.4455 3.9866 39.5302 3.88044 39.6383 3.77579C39.7463 3.67113 39.8749 3.5771 40.0253 3.49141C40.1757 3.40647 40.3435 3.33671 40.528 3.28286C40.7132 3.22902 40.9097 3.20172 41.1176 3.20172C41.4721 3.20172 41.7783 3.25632 42.0368 3.36401C42.2946 3.47245 42.5092 3.62336 42.6786 3.81673C42.8479 4.01011 42.9734 4.24444 43.0543 4.51896C43.1351 4.79348 43.176 5.09302 43.176 5.41759V8.77022H42.2741V5.51087C42.2741 5.05435 42.1736 4.69489 41.9733 4.43175C41.773 4.16936 41.4608 4.03741 41.0367 4.03741C40.7434 4.03741 40.4917 4.08746 40.2793 4.18832C40.0669 4.28918 39.8938 4.43175 39.7592 4.61754C39.6239 4.80334 39.5241 5.02326 39.4583 5.27882C39.3926 5.53438 39.3601 5.81648 39.3601 6.12589V8.77098H38.4583V8.0851e-07Z" fill="var(--fill-0, #EE402F)"/>
<path id="Vector_7" d="M49.7207 7.78362C49.3972 8.20147 49.0419 8.49343 48.6571 8.6595C48.2716 8.82558 47.8249 8.909 47.3161 8.909C46.8921 8.909 46.5103 8.83316 46.1717 8.68301C45.8323 8.5321 45.545 8.32963 45.3099 8.07407C45.0748 7.81926 44.8934 7.51744 44.7664 7.16936C44.6394 6.82129 44.5759 6.45046 44.5759 6.05536C44.5759 5.63751 44.6455 5.25303 44.7838 4.90116C44.9229 4.54929 45.1149 4.24747 45.3621 3.99646C45.6085 3.74545 45.9018 3.5498 46.2412 3.41102C46.5806 3.27149 46.9503 3.20248 47.3517 3.20248C47.7289 3.20248 48.0758 3.26618 48.3918 3.39358C48.7078 3.52098 48.9799 3.70678 49.2075 3.9502C49.435 4.19363 49.6096 4.49166 49.7336 4.84353C49.8568 5.1954 49.9188 5.5958 49.9188 6.04398V6.33367H45.548C45.5632 6.56572 45.6191 6.78792 45.7159 7.00025C45.8119 7.21334 45.9373 7.39838 46.0915 7.55688C46.2458 7.71537 46.4264 7.84125 46.6351 7.93377C46.8429 8.02629 47.0705 8.07331 47.3169 8.07331C47.71 8.07331 48.0418 8.00354 48.3109 7.86476C48.5808 7.72523 48.8234 7.52048 49.0396 7.24975L49.7207 7.78362ZM48.9459 5.56775C48.93 5.10364 48.7804 4.73281 48.4946 4.45374C48.2096 4.17543 47.8158 4.0359 47.3154 4.0359C46.8142 4.0359 46.4098 4.17543 46.1014 4.45374C45.793 4.73205 45.6078 5.10364 45.5465 5.56775H48.9459Z" fill="var(--fill-0, #EE402F)"/>
<path id="Vector_8" d="M54.6924 0.556623H55.9178L60.6589 7.37715H60.6816V0.556623H61.6529V8.76946H60.4276L55.6865 1.94894H55.6638V8.76946H54.6924V0.556623Z" fill="var(--fill-0, #EE402F)"/>
<path id="Vector_9" d="M63.2139 6.05536C63.2139 5.63069 63.2873 5.24318 63.4339 4.8951C63.5806 4.54702 63.7809 4.24747 64.0349 3.99646C64.2888 3.74545 64.5935 3.5498 64.948 3.41102C65.3025 3.27149 65.6881 3.20248 66.1046 3.20248C66.5211 3.20248 66.9066 3.27225 67.2611 3.41102C67.6157 3.55056 67.9203 3.74545 68.1743 3.99646C68.429 4.24747 68.6293 4.54778 68.7752 4.8951C68.9219 5.24318 68.9952 5.62993 68.9952 6.05536C68.9952 6.48079 68.9219 6.86754 68.7752 7.21562C68.6286 7.5637 68.4283 7.86324 68.1743 8.11425C67.9203 8.36527 67.6157 8.56092 67.2611 8.6997C66.9066 8.83923 66.5211 8.90824 66.1046 8.90824C65.6881 8.90824 65.3025 8.83847 64.948 8.6997C64.5935 8.56016 64.2888 8.36527 64.0349 8.11425C63.7809 7.86324 63.5798 7.56294 63.4339 7.21562C63.2873 6.86754 63.2139 6.48079 63.2139 6.05536ZM64.1853 6.05536C64.1853 6.34125 64.2299 6.60667 64.3183 6.8501C64.4068 7.09353 64.536 7.30662 64.7061 7.48862C64.8754 7.67063 65.078 7.8132 65.3131 7.91785C65.5482 8.0225 65.812 8.07482 66.1053 8.07482C66.3979 8.07482 66.6624 8.0225 66.8975 7.91785C67.1326 7.8132 67.3352 7.67063 67.5045 7.48862C67.6739 7.30662 67.8031 7.09429 67.8916 6.8501C67.98 6.60667 68.0246 6.34201 68.0246 6.05536C68.0246 5.76947 67.98 5.5048 67.8916 5.26061C67.8031 5.01719 67.6739 4.80409 67.5045 4.62209C67.3345 4.44085 67.1326 4.29752 66.8975 4.19287C66.6624 4.08822 66.3986 4.0359 66.1053 4.0359C65.812 4.0359 65.5482 4.08822 65.3131 4.19287C65.078 4.29752 64.8754 4.44009 64.7061 4.62209C64.5368 4.80409 64.4068 5.01643 64.3183 5.26061C64.2299 5.50404 64.1853 5.76947 64.1853 6.05536Z" fill="var(--fill-0, #EE402F)"/>
<path id="Vector_10" d="M76.1991 8.76946H75.3087L73.7711 4.59327H73.7477L72.3832 8.76946H71.458L69.7005 3.3405H70.6945L71.932 7.51668H71.9554L73.3546 3.3405H74.3025L75.7244 7.51668H75.7479L76.9732 3.3405H77.9446L76.1991 8.76946Z" fill="var(--fill-0, #EE402F)"/>
</g>
</svg>
