<svg preserveAspectRatio="none" width="100%" height="100%" overflow="visible" style="display: block;" viewBox="0 0 42.3942 41.1014" fill="none" xmlns="http://www.w3.org/2000/svg">
<g id="Group">
<path id="Vector" d="M39.7887 9.67947C38.7992 9.67947 36.5601 9.69464 36.5601 9.69464C36.5601 9.69464 36.5874 11.5344 36.5579 13.1178C37.9639 23.7558 33.9129 30.2882 26.0687 33.8448C15.9847 38.4267 5.59533 33.5361 1.90039 25.4772C1.87469 25.3498 1.70234 25.0662 1.6721 25.045C1.49672 24.8547 1.24651 24.7318 0.967579 24.7318C0.431631 24.7318 0 25.1663 0 25.7002C0 25.8572 0.0408198 26.0005 0.106585 26.1347C7.0724 44.4502 24.925 42.9358 32.8909 37.3878C40.7041 31.9497 45.7249 20.5844 39.7887 9.67947Z" fill="var(--fill-0, #EE402F)"/>
<path id="Vector_2" d="M13.2128 2.69287C13.2385 2.69287 13.2649 2.68681 13.2906 2.68301C13.3277 2.67316 13.3632 2.66557 13.3987 2.66102C16.0459 2.11502 18.3976 2.12108 19.8694 2.38347C25.1465 3.31244 28.1823 4.70551 32.2839 8.70197C32.2884 8.71032 35.5661 8.70197 35.5661 8.70197V6.61274C32.649 3.21234 26.6946 -0.00227381 20.7085 1.21126e-06C18.1187 1.21126e-06 15.6188 0.367039 13.0601 1.38549C12.9973 1.40218 12.9399 1.42493 12.8847 1.45374C12.6866 1.56901 12.5528 1.78286 12.5528 2.03084C12.5536 2.39181 12.8499 2.69287 13.2128 2.69287Z" fill="var(--fill-0, #EE402F)"/>
<path id="Vector_3" d="M9.77936 26.5859C9.80959 26.595 9.84663 26.6011 9.87989 26.6011C9.89501 26.6011 9.90711 26.5966 9.92298 26.595C22.0805 27.1691 30.6829 20.6155 35.5669 15.2601V9.69312C35.5669 9.69312 34.3786 9.67947 33.2522 9.67947C29.7463 12.8804 20.7788 16.4371 12.5203 15.5832C12.4848 15.5771 12.4523 15.5741 12.413 15.5741C12.4107 15.5741 12.4085 15.5756 12.4054 15.5756C12.2142 15.5763 12.0517 15.6931 11.9783 15.8501C11.9511 15.9055 11.9375 15.9684 11.933 16.0253C11.5021 17.7535 10.053 23.5655 9.44826 25.9201C9.42634 25.9694 9.41122 26.0248 9.40669 26.0756C9.40669 26.0915 9.40215 26.1074 9.40215 26.1173C9.40139 26.3501 9.56392 26.5442 9.77936 26.5859Z" fill="var(--fill-0, #EE402F)"/>
</g>
</svg>
