<svg preserveAspectRatio="none" width="100%" height="100%" overflow="visible" style="display: block;" viewBox="0 0 89.6062 17.1999" fill="none" xmlns="http://www.w3.org/2000/svg">
<g id="Group">
<path id="Vector" d="M0.00075666 0H5.57265C6.92197 0 8.20401 0.151668 9.41802 0.454246C10.6328 0.756824 11.6918 1.24671 12.5974 1.92315C13.5023 2.60035 14.2204 3.48003 14.7526 4.56294C15.284 5.64585 15.5501 6.96006 15.5501 8.5048C15.5501 9.87437 15.2923 11.0809 14.776 12.1236C14.2597 13.1671 13.565 14.043 12.6927 14.7513C11.8196 15.4603 10.8112 15.9972 9.66823 16.3635C8.52528 16.7298 7.32639 16.9133 6.07232 16.9133H0V0H0.00075666ZM3.71535 13.4735H5.64446C6.50168 13.4735 7.29918 13.3862 8.03771 13.2103C8.77625 13.0351 9.415 12.7447 9.95473 12.3382C10.4945 11.9317 10.9193 11.3986 11.2285 10.7374C11.5384 10.0768 11.6926 9.26845 11.6926 8.31294C11.6926 7.48483 11.5376 6.76441 11.2285 6.15091C10.9193 5.53817 10.502 5.03236 9.97816 4.63423C9.45431 4.2361 8.83899 3.93807 8.13296 3.73863C7.42617 3.53918 6.68386 3.43984 5.90677 3.43984H3.71611V13.4735H3.71535Z" fill="var(--fill-0, #686C78)"/>
<path id="Vector_2" d="M24.8842 15.4558H24.8366C24.4397 16.0768 23.9113 16.5227 23.2529 16.7935C22.5945 17.0642 21.8998 17.1999 21.1696 17.1999C20.6298 17.1999 20.1098 17.1241 19.6101 16.9732C19.1097 16.8223 18.6697 16.5955 18.2888 16.2922C17.9078 15.9896 17.6062 15.6158 17.3839 15.1691C17.1617 14.7232 17.0506 14.2053 17.0506 13.616C17.0506 12.9472 17.173 12.3822 17.4195 11.9196C17.6651 11.4578 17.9985 11.0756 18.4195 10.773C18.8398 10.4704 19.3206 10.2353 19.8603 10.0685C20.4 9.90167 20.9594 9.77806 21.5392 9.69843C22.1183 9.61881 22.6981 9.57103 23.2771 9.55511C23.8569 9.53918 24.3928 9.5316 24.8849 9.5316C24.8849 8.89459 24.6589 8.38878 24.2061 8.01416C23.7541 7.64029 23.2181 7.45298 22.599 7.45298C22.0117 7.45298 21.4757 7.57659 20.9919 7.82305C20.5074 8.07027 20.075 8.40849 19.694 8.83847L17.7891 6.87968C18.4558 6.25859 19.2337 5.79297 20.1226 5.48205C21.0116 5.17189 21.9323 5.01643 22.8848 5.01643C23.9325 5.01643 24.7935 5.14762 25.4685 5.41077C26.1435 5.67391 26.6833 6.05991 27.0877 6.56952C27.4921 7.07912 27.7741 7.70399 27.9328 8.44489C28.0915 9.18579 28.1717 10.042 28.1717 11.0126V16.9133H24.8857V15.4558H24.8842ZM24.0028 11.8248C23.7329 11.8248 23.3958 11.837 22.9913 11.8605C22.5869 11.884 22.1976 11.9522 21.825 12.0637C21.4515 12.1752 21.134 12.3428 20.8725 12.565C20.6102 12.7879 20.4794 13.0988 20.4794 13.497C20.4794 13.9269 20.6616 14.2462 21.0267 14.4525C21.3918 14.6595 21.7728 14.7634 22.1697 14.7634C22.5181 14.7634 22.856 14.7156 23.1818 14.6201C23.5069 14.5245 23.7964 14.3895 24.0511 14.2144C24.3044 14.0392 24.507 13.8162 24.6582 13.5455C24.8086 13.2748 24.8842 12.9563 24.8842 12.59V11.8256H24.0028V11.8248Z" fill="var(--fill-0, #686C78)"/>
<path id="Vector_3" d="M33.9802 1.05411e-07V6.88044H34.0278C34.1072 6.65748 34.2425 6.43453 34.433 6.21158C34.6235 5.98863 34.8533 5.78994 35.1231 5.61476C35.393 5.43959 35.7105 5.29626 36.0756 5.18478C36.4407 5.07331 36.8376 5.01719 37.2662 5.01719C38.171 5.01719 38.9012 5.15672 39.4568 5.43504C40.0124 5.71335 40.4448 6.1001 40.7547 6.59378C41.0639 7.08746 41.2748 7.66911 41.3859 8.33797C41.4963 9.00682 41.5522 9.7318 41.5522 10.5121V16.9148H37.9805V11.2295C37.9805 10.8951 37.9684 10.5485 37.945 10.1906C37.9208 9.8319 37.8497 9.50202 37.7303 9.19944C37.6116 8.89687 37.4287 8.64965 37.1823 8.45854C36.9358 8.26744 36.5828 8.17189 36.1225 8.17189C35.6621 8.17189 35.2887 8.25531 35.0029 8.4229C34.7172 8.5905 34.4987 8.81345 34.3483 9.09176C34.1971 9.37083 34.0981 9.68554 34.0505 10.0351C34.0029 10.3855 33.9787 10.7518 33.9787 11.134V16.9148H30.4069V1.05411e-07H33.9802Z" fill="var(--fill-0, #686C78)"/>
<path id="Vector_4" d="M44.5291 1.50531H49.1281L55.6577 12.2123H55.7008V1.50531H59.0851V16.9133H54.6599L47.9572 5.9454H47.9133V16.9133H44.5291V1.50531Z" fill="var(--fill-0, #686C78)"/>
<path id="Vector_5" d="M67.2626 1.50531H70.0611L76.7427 16.9133H72.9245L71.6009 13.6486H65.6351L64.3554 16.9133H60.6241L67.2626 1.50531ZM68.5643 5.98862L66.6987 10.7768H70.4519L68.5643 5.98862Z" fill="var(--fill-0, #686C78)"/>
<path id="Vector_6" d="M80.452 10.3407L74.682 1.50531H78.8902L82.1437 7.2725L85.593 1.50531H89.6062L83.8362 10.3407V16.9133H80.452V10.3407Z" fill="var(--fill-0, #686C78)"/>
</g>
</svg>
