<svg preserveAspectRatio="none" width="100%" height="100%" overflow="visible" style="display: block;" viewBox="0 0 105.919 12.2015" fill="none" xmlns="http://www.w3.org/2000/svg">
<g id="Group">
<path id="Vector" d="M10.1037 11.1605C9.46481 11.5181 8.79197 11.7809 8.08422 11.9488C7.37749 12.1168 6.66255 12.2013 5.93938 12.2013C5.07035 12.2013 4.27426 12.0591 3.5511 11.7757C2.82793 11.4923 2.20236 11.0925 1.67334 10.5772C1.14432 10.063 0.733432 9.44471 0.439647 8.72541C0.145862 8.00612 0 7.20954 0 6.33669C0 5.45458 0.154078 4.65284 0.463271 3.93354C0.772464 3.21322 1.19876 2.59903 1.74422 2.08893C2.28865 1.57883 2.92244 1.18208 3.6456 0.898694C4.36877 0.615304 5.14843 0.473093 5.98664 0.473093C6.72007 0.473093 7.42475 0.583357 8.09963 0.803886C8.77554 1.02441 9.38057 1.40261 9.91473 1.93848L8.92449 2.97929C8.5475 2.56915 8.08936 2.25381 7.54904 2.03328C7.00975 1.81275 6.45711 1.70249 5.89111 1.70249C5.25218 1.70249 4.66049 1.81791 4.11607 2.04874C3.57164 2.27958 3.09707 2.60006 2.6944 3.01021C2.2907 3.42035 1.97637 3.90881 1.75141 4.47662C1.52645 5.04443 1.41345 5.6648 1.41345 6.33669C1.41345 6.99931 1.52542 7.61349 1.75141 8.1813C1.97637 8.74911 2.2907 9.24066 2.6944 9.65493C3.09809 10.0702 3.58192 10.3928 4.14792 10.6246C4.71392 10.8555 5.33641 10.9709 6.01745 10.9709C6.46738 10.9709 6.93887 10.9152 7.43194 10.805C7.92398 10.6947 8.37493 10.535 8.78273 10.3248V6.9045H6.22187V5.6751H10.1027V11.1605H10.1037Z" fill="var(--fill-0, #EE402F)"/>
<path id="Vector_2" d="M12.6491 6.28949C12.6491 5.95354 12.6388 5.63821 12.6182 5.34348C12.5967 5.04978 12.5864 4.78082 12.5864 4.53968H13.7492C13.7492 4.7396 13.7544 4.93952 13.7646 5.13841C13.7749 5.33833 13.78 5.54237 13.78 5.75362H13.8119C13.8961 5.57534 14.0132 5.40119 14.1652 5.23321C14.3173 5.06524 14.4981 4.91582 14.7076 4.78391C14.9172 4.65201 15.1524 4.5469 15.4143 4.46858C15.6763 4.38923 15.9588 4.35007 16.2628 4.35007C16.3471 4.35007 16.4303 4.35522 16.5145 4.36553C16.5987 4.37583 16.6819 4.39644 16.7662 4.42839L16.6881 5.67324C16.4785 5.61038 16.2587 5.57843 16.0286 5.57843C15.2746 5.57843 14.7271 5.82267 14.3861 6.31113C14.0461 6.79959 13.8756 7.46942 13.8756 8.32062V11.915H12.6501V6.28949H12.6491Z" fill="var(--fill-0, #EE402F)"/>
<path id="Vector_3" d="M17.4729 8.22883C17.4729 7.65175 17.5726 7.12516 17.7718 6.65216C17.9711 6.17915 18.2433 5.7721 18.5885 5.431C18.9347 5.0899 19.3476 4.82403 19.8294 4.63545C20.3111 4.44583 20.835 4.35206 21.401 4.35206C21.967 4.35206 22.4909 4.44687 22.9727 4.63545C23.4544 4.82506 23.8684 5.0899 24.2135 5.431C24.5587 5.7721 24.8319 6.18018 25.0302 6.65216C25.2295 7.12516 25.3291 7.65072 25.3291 8.22883C25.3291 8.80695 25.2295 9.33251 25.0302 9.80551C24.8309 10.2785 24.5587 10.6856 24.2135 11.0267C23.8674 11.3678 23.4534 11.6336 22.9727 11.8222C22.4909 12.0118 21.967 12.1056 21.401 12.1056C20.835 12.1056 20.3111 12.0108 19.8294 11.8222C19.3476 11.6326 18.9336 11.3678 18.5885 11.0267C18.2423 10.6856 17.9701 10.2775 17.7718 9.80551C17.5726 9.33251 17.4729 8.80695 17.4729 8.22883ZM18.7929 8.22883C18.7929 8.61734 18.8535 8.97801 18.9737 9.30881C19.0939 9.6396 19.2695 9.92917 19.5007 10.1765C19.7308 10.4238 20.0061 10.6176 20.3255 10.7598C20.645 10.902 21.0035 10.9731 21.402 10.9731C21.7996 10.9731 22.1591 10.902 22.4786 10.7598C22.798 10.6176 23.0733 10.4238 23.3034 10.1765C23.5335 9.92917 23.7092 9.64063 23.8294 9.30881C23.9496 8.97801 24.0102 8.61837 24.0102 8.22883C24.0102 7.84033 23.9496 7.48068 23.8294 7.14886C23.7092 6.81806 23.5335 6.52849 23.3034 6.28117C23.0733 6.03488 22.798 5.84011 22.4786 5.6979C22.1591 5.55569 21.8006 5.48459 21.402 5.48459C21.0035 5.48459 20.645 5.55569 20.3255 5.6979C20.0061 5.84011 19.7308 6.03385 19.5007 6.28117C19.2695 6.52849 19.0949 6.81703 18.9737 7.14886C18.8525 7.47965 18.7929 7.84033 18.7929 8.22883Z" fill="var(--fill-0, #EE402F)"/>
<path id="Vector_4" d="M35.1185 11.9166H33.9085L31.8191 6.24157H31.7873L29.9331 11.9166H28.6758L26.2875 4.53917H27.6383L29.3199 10.2142H29.3517L31.2531 4.53917H32.5412L34.4734 10.2142H34.5053L36.1704 4.53917H37.4904L35.1185 11.9166Z" fill="var(--fill-0, #EE402F)"/>
<path id="Vector_5" d="M50.9254 1.98582H47.249V11.9168H45.929V1.98582H42.2526V0.756418H50.9264V1.98582H50.9254Z" fill="var(--fill-0, #EE402F)"/>
<path id="Vector_6" d="M52.2609 0H53.4863V5.56475H53.5182C53.6024 5.41739 53.7175 5.27312 53.8644 5.13091C54.0112 4.9887 54.1859 4.86091 54.3903 4.74447C54.5947 4.62905 54.8227 4.53424 55.0734 4.46108C55.3251 4.38791 55.5921 4.35081 55.8746 4.35081C56.3564 4.35081 56.7724 4.42501 57.1237 4.57134C57.474 4.7187 57.7657 4.92377 57.9958 5.18655C58.2259 5.44933 58.3964 5.76776 58.5064 6.14081C58.6163 6.51385 58.6717 6.9209 58.6717 7.36196V11.9178H57.4463V7.48871C57.4463 6.86835 57.3097 6.37988 57.0374 6.02229C56.7652 5.66574 56.341 5.48643 55.7647 5.48643C55.3661 5.48643 55.0241 5.55445 54.7354 5.6915C54.4468 5.82856 54.2115 6.0223 54.0287 6.27477C53.8448 6.52725 53.7092 6.8261 53.6199 7.17338C53.5305 7.52066 53.4863 7.90401 53.4863 8.32446V11.9189H52.2609V0Z" fill="var(--fill-0, #EE402F)"/>
<path id="Vector_7" d="M67.5654 10.5774C67.1258 11.1452 66.643 11.5419 66.1201 11.7676C65.5962 11.9933 64.9892 12.1066 64.2978 12.1066C63.7216 12.1066 63.2028 12.0036 62.7426 11.7995C62.2814 11.5945 61.8911 11.3193 61.5716 10.9721C61.2521 10.6258 61.0056 10.2157 60.833 9.74265C60.6605 9.26965 60.5742 8.76573 60.5742 8.22883C60.5742 7.66102 60.6687 7.13855 60.8566 6.6604C61.0457 6.18224 61.3066 5.7721 61.6425 5.431C61.9773 5.0899 62.3759 4.82403 62.8371 4.63545C63.2984 4.44583 63.8007 4.35206 64.3461 4.35206C64.8587 4.35206 65.3302 4.43862 65.7596 4.61174C66.1889 4.78487 66.5588 5.03735 66.8679 5.36814C67.1771 5.69893 67.4144 6.10392 67.5829 6.58208C67.7503 7.06023 67.8346 7.60434 67.8346 8.21337V8.60703H61.8952C61.9157 8.92237 61.9917 9.2243 62.1232 9.51285C62.2537 9.80242 62.4242 10.0539 62.6337 10.2692C62.8433 10.4846 63.0888 10.6557 63.3723 10.7814C63.6548 10.9071 63.964 10.971 64.2989 10.971C64.833 10.971 65.284 10.8762 65.6497 10.6876C66.0164 10.498 66.3461 10.2198 66.6399 9.85189L67.5654 10.5774ZM66.5125 7.56622C66.491 6.93555 66.2876 6.43163 65.8993 6.0524C65.512 5.6742 64.9768 5.48459 64.2968 5.48459C63.6158 5.48459 63.0662 5.6742 62.6471 6.0524C62.228 6.4306 61.9763 6.93555 61.8931 7.56622H66.5125Z" fill="var(--fill-0, #EE402F)"/>
<path id="Vector_8" d="M74.3214 0.756418H75.9865L82.4292 10.0248H82.4601V0.756418H83.78V11.9168H82.1149L75.6722 2.64843H75.6414V11.9168H74.3214V0.756418Z" fill="var(--fill-0, #EE402F)"/>
<path id="Vector_9" d="M85.9012 8.22883C85.9012 7.65175 86.0009 7.12516 86.2002 6.65216C86.3994 6.17915 86.6716 5.7721 87.0168 5.431C87.3619 5.0899 87.7759 4.82403 88.2577 4.63545C88.7394 4.44583 89.2633 4.35206 89.8293 4.35206C90.3953 4.35206 90.9192 4.44687 91.401 4.63545C91.8827 4.82506 92.2967 5.0899 92.6419 5.431C92.988 5.7721 93.2602 6.18018 93.4585 6.65216C93.6578 7.12516 93.7574 7.65072 93.7574 8.22883C93.7574 8.80695 93.6578 9.33251 93.4585 9.80551C93.2592 10.2785 92.987 10.6856 92.6419 11.0267C92.2967 11.3678 91.8827 11.6336 91.401 11.8222C90.9192 12.0118 90.3953 12.1056 89.8293 12.1056C89.2633 12.1056 88.7394 12.0108 88.2577 11.8222C87.7759 11.6326 87.3619 11.3678 87.0168 11.0267C86.6716 10.6856 86.3984 10.2775 86.2002 9.80551C86.0009 9.33251 85.9012 8.80695 85.9012 8.22883ZM87.2212 8.22883C87.2212 8.61734 87.2818 8.97801 87.402 9.30881C87.5222 9.6396 87.6978 9.92917 87.929 10.1765C88.1591 10.4238 88.4344 10.6176 88.7538 10.7598C89.0733 10.902 89.4318 10.9731 89.8304 10.9731C90.2279 10.9731 90.5874 10.902 90.9069 10.7598C91.2263 10.6176 91.5016 10.4238 91.7317 10.1765C91.9618 9.92917 92.1375 9.64063 92.2577 9.30881C92.3779 8.97801 92.4385 8.61837 92.4385 8.22883C92.4385 7.84033 92.3779 7.48068 92.2577 7.14886C92.1375 6.81806 91.9618 6.52849 91.7317 6.28117C91.5006 6.03488 91.2263 5.84011 90.9069 5.6979C90.5874 5.55569 90.2289 5.48459 89.8304 5.48459C89.4318 5.48459 89.0733 5.55569 88.7538 5.6979C88.4344 5.84011 88.1591 6.03385 87.929 6.28117C87.6989 6.52849 87.5222 6.81703 87.402 7.14886C87.2818 7.47965 87.2212 7.84033 87.2212 8.22883Z" fill="var(--fill-0, #EE402F)"/>
<path id="Vector_10" d="M103.547 11.9166H102.337L100.248 6.24157H100.216L98.3618 11.9166H97.1044L94.7162 4.53917H96.067L97.7485 10.2142H97.7804L99.6817 4.53917H100.97L102.902 10.2142H102.934L104.599 4.53917H105.919L103.547 11.9166Z" fill="var(--fill-0, #EE402F)"/>
</g>
</svg>
