<?xml version="1.0" encoding="UTF-8"?><svg id="Layer_1" xmlns="http://www.w3.org/2000/svg" viewBox="0 0 395 167"><defs><style>.cls-1,.cls-2{fill:#676d78;}.cls-3{fill:#ef493e;}.cls-2{font-family:AvenirLTStd-Black, 'Avenir LT Std';font-size:15.93px;font-weight:800;}.cls-4{fill:none;stroke:#676d78;stroke-miterlimit:2.61;stroke-width:.3px;}</style></defs><path class="cls-1" d="m172.68,30.39c0,4.16-.78,7.77-2.33,10.78-1.54,3.03-3.57,5.51-6.1,7.46-2.54,1.95-5.39,3.38-8.57,4.31-3.19.92-6.4,1.38-9.67,1.38h-17.74V6.74h17.21c3.35,0,6.67.39,9.94,1.18,3.27.78,6.18,2.08,8.74,3.9,2.54,1.81,4.61,4.24,6.18,7.29,1.57,3.05,2.35,6.8,2.35,11.28m-11.96,0c0-2.69-.44-4.92-1.31-6.68-.9-1.77-2.06-3.19-3.51-4.24-1.46-1.05-3.11-1.79-4.96-2.26-1.86-.43-3.77-.67-5.74-.67h-5.72v27.83h5.45c2.05,0,4.04-.25,5.95-.71,1.9-.45,3.57-1.24,5.03-2.31,1.45-1.08,2.62-2.51,3.51-4.31.86-1.79,1.31-4,1.31-6.65Z"/><path class="cls-1" d="m179.19,25.43c1.97-1.89,4.28-3.29,6.9-4.24,2.62-.95,5.27-1.4,8.03-1.4s5.2.34,7.14,1.04c1.95.69,3.52,1.77,4.74,3.22,1.22,1.46,2.09,3.29,2.65,5.51.57,2.22.85,4.85.85,7.89v16.88h-10.09v-3.56h-.19c-.86,1.4-2.15,2.45-3.87,3.24-1.73.76-3.6,1.14-5.61,1.14-1.35,0-2.73-.19-4.17-.54-1.44-.36-2.76-.95-3.95-1.76-1.18-.8-2.15-1.86-2.91-3.22-.77-1.35-1.16-3-1.16-4.97,0-2.43.66-4.37,1.98-5.86,1.33-1.48,3.03-2.62,5.11-3.43,2.09-.8,4.41-1.34,6.96-1.6,2.54-.27,5.03-.41,7.46-.41v-.53c0-1.67-.6-2.88-1.76-3.67-1.16-.78-2.59-1.17-4.29-1.17-1.57,0-3.09.34-4.56,1.02-1.45.67-2.69,1.48-3.71,2.41l-5.59-5.97Zm20.22,14.31h-1.41c-1.21,0-2.44.06-3.66.17-1.24.11-2.32.31-3.29.63-.97.31-1.77.77-2.39,1.37-.62.62-.94,1.41-.94,2.39,0,.63.15,1.16.44,1.62.3.45.66.81,1.1,1.08.45.27.97.44,1.56.56.57.12,1.14.17,1.68.17,2.24,0,3.96-.61,5.14-1.86,1.19-1.22,1.77-2.9,1.77-5.01v-1.13Z"/><path class="cls-1" d="m236.08,54.32v-18.14c0-.94-.05-1.83-.19-2.69-.14-.85-.4-1.59-.77-2.24-.39-.65-.9-1.17-1.52-1.56-.62-.38-1.43-.56-2.42-.56-1.92,0-3.41.68-4.44,2.04-1.03,1.38-1.54,3.07-1.54,5.08v18.07h-11.01V3.52h11.01v21.56h.14c.76-1.33,1.98-2.53,3.62-3.58,1.68-1.05,3.68-1.58,6-1.58s4.2.4,5.74,1.21c1.54.8,2.8,1.85,3.77,3.13.96,1.27,1.66,2.74,2.08,4.39.42,1.67.64,3.32.64,4.98v20.7h-11.1Z"/><polygon class="cls-1" points="282.11 54.32 262.97 23.21 262.76 23.21 263.02 54.32 251.88 54.32 251.88 6.74 264.97 6.74 284.05 37.79 284.26 37.79 284 6.74 295.14 6.74 295.14 54.32 282.11 54.32"/><path class="cls-1" d="m337.93,54.31l-3.69-9.34h-18.41l-3.5,9.34h-12.5l19.95-47.57h11.16l19.76,47.57h-12.77Zm-12.76-34.88l-6.04,16.33h11.96l-5.92-16.33Z"/><polygon class="cls-1" points="367.87 34.16 367.87 54.32 356.39 54.32 356.39 34.16 338.51 6.74 352.41 6.74 362.56 24.35 372.71 6.74 386.14 6.74 367.87 34.16"/><polygon class="cls-1" points="181.26 95.06 200.44 95.06 200.44 98.78 177.08 98.78 177.08 57.66 181.26 57.66 181.26 95.06"/><path class="cls-1" d="m232.45,85.18c0,2.07-.35,3.95-1.08,5.7-.71,1.75-1.71,3.24-2.99,4.52-1.27,1.29-2.82,2.28-4.58,3.01-1.79.7-3.75,1.07-5.88,1.07s-4.02-.36-5.79-1.07c-1.8-.73-3.32-1.72-4.6-3.01-1.29-1.28-2.27-2.77-3.01-4.52-.7-1.75-1.07-3.63-1.07-5.7s.36-3.95,1.07-5.68c.74-1.74,1.72-3.27,3.01-4.54,1.28-1.27,2.79-2.28,4.6-2.98,1.76-.72,3.7-1.08,5.79-1.08s4.08.35,5.88,1.08c1.77.71,3.32,1.72,4.58,2.98,1.28,1.27,2.28,2.79,2.99,4.54.74,1.73,1.08,3.64,1.08,5.68m-4.18,0c0-1.5-.24-2.92-.74-4.26-.48-1.34-1.17-2.5-2.06-3.5-.88-.97-1.98-1.76-3.25-2.35-1.28-.58-2.72-.86-4.31-.86s-3.01.28-4.26.86c-1.26.59-2.33,1.38-3.23,2.35-.9,1-1.58,2.16-2.06,3.5-.48,1.34-.72,2.76-.72,4.26s.24,2.94.72,4.28c.48,1.34,1.16,2.5,2.06,3.48.9,1,1.97,1.77,3.23,2.33,1.25.55,2.68.84,4.26.84s3.03-.29,4.31-.84c1.27-.56,2.36-1.33,3.25-2.33.89-.97,1.58-2.14,2.06-3.48.5-1.33.74-2.76.74-4.28Z"/><path class="cls-1" d="m241.2,104.22c1.1,1.41,2.58,2.59,4.45,3.55,1.88.97,3.87,1.45,5.96,1.45,1.93,0,3.58-.28,4.94-.83,1.35-.57,2.45-1.32,3.29-2.3.82-.97,1.45-2.1,1.83-3.4.39-1.29.57-2.69.57-4.15v-5.13h-.11c-1.04,1.71-2.53,3.03-4.44,3.94-1.91.93-3.87,1.41-5.84,1.41-2.12,0-4.05-.36-5.78-1.05-1.72-.71-3.18-1.67-4.41-2.87-1.23-1.22-2.17-2.69-2.84-4.4-.68-1.7-1.02-3.54-1.02-5.51s.35-3.75,1.02-5.46c.67-1.71,1.62-3.19,2.84-4.47,1.23-1.29,2.69-2.29,4.41-3.02,1.73-.75,3.66-1.11,5.78-1.11,1.98,0,3.92.45,5.81,1.38,1.91.93,3.39,2.27,4.47,4.03h.11v-4.7h3.96v26.95c0,1.45-.19,3.03-.6,4.71-.4,1.65-1.16,3.18-2.27,4.58-1.11,1.39-2.6,2.55-4.51,3.48-1.88.93-4.34,1.41-7.37,1.41-2.51,0-4.91-.5-7.2-1.45-2.28-.98-4.24-2.32-5.86-4.02l2.83-3.02Zm.77-19.39c0,1.43.24,2.79.69,4.06.47,1.27,1.14,2.41,2.01,3.36.86.98,1.94,1.74,3.22,2.31,1.29.56,2.74.83,4.35.83,1.53,0,2.91-.25,4.19-.75,1.29-.5,2.37-1.22,3.31-2.15.93-.92,1.66-2.05,2.19-3.34.52-1.29.79-2.73.79-4.32,0-1.43-.27-2.79-.79-4.06-.52-1.28-1.26-2.41-2.19-3.39-.94-.95-2.02-1.72-3.31-2.32-1.28-.57-2.66-.86-4.19-.86-1.61,0-3.06.29-4.35.86-1.28.59-2.36,1.36-3.22,2.32-.87.98-1.54,2.11-2.01,3.39-.45,1.27-.69,2.63-.69,4.06Z"/><path class="cls-1" d="m276.64,61.13c0,.81-.28,1.49-.88,2.01-.57.52-1.2.79-1.91.79s-1.34-.26-1.91-.79c-.58-.52-.88-1.19-.88-2.01s.3-1.48.88-2.01c.57-.52,1.21-.79,1.91-.79s1.34.26,1.91.79c.6.52.88,1.2.88,2.01m-.81,37.65h-3.95v-27.18h3.95v27.18Z"/><path class="cls-1" d="m297.32,78.04c-.57-1.13-1.46-2.05-2.63-2.76-1.19-.72-2.53-1.07-4.04-1.07-.69,0-1.39.07-2.09.22-.7.16-1.31.41-1.86.75-.55.36-.98.8-1.31,1.34-.32.55-.49,1.18-.49,1.92,0,1.29.52,2.25,1.57,2.93,1.04.68,2.69,1.26,4.93,1.71,3.22.66,5.59,1.63,7.11,2.87,1.53,1.27,2.3,2.97,2.3,5.1,0,1.55-.31,2.86-.91,3.92-.61,1.06-1.39,1.93-2.36,2.61-.96.68-2.06,1.16-3.28,1.46-1.21.29-2.46.43-3.69.43-2.06,0-4.04-.42-5.98-1.29-1.93-.83-3.52-2.18-4.77-3.99l3.14-2.34c.7,1.2,1.72,2.22,3.08,3.02,1.36.82,2.85,1.23,4.47,1.23.85,0,1.67-.07,2.44-.23.79-.16,1.46-.43,2.03-.81.58-.39,1.04-.88,1.4-1.49.35-.59.52-1.33.52-2.24,0-1.43-.69-2.51-2.07-3.21-1.37-.73-3.36-1.4-5.95-2.01-.81-.18-1.68-.44-2.59-.72-.9-.29-1.75-.73-2.53-1.3-.77-.54-1.41-1.26-1.91-2.1-.5-.86-.75-1.93-.75-3.19,0-1.41.26-2.59.81-3.58.53-.98,1.28-1.79,2.18-2.43.91-.66,1.94-1.12,3.1-1.45,1.17-.29,2.36-.45,3.62-.45,1.89,0,3.73.43,5.51,1.27,1.76.87,3.11,2.07,3.99,3.61l-3.02,2.27Z"/><path class="cls-1" d="m320.91,74.89h-7.68v15.87c0,1,.09,1.84.29,2.5.19.66.48,1.17.85,1.53.37.36.8.62,1.31.75.51.14,1.04.21,1.62.21s1.12-.1,1.72-.23c.61-.15,1.17-.38,1.71-.65l.19,3.43c-.71.27-1.43.49-2.19.63-.76.14-1.58.19-2.47.19-.73,0-1.51-.09-2.31-.29-.82-.18-1.57-.55-2.27-1.09-.7-.54-1.26-1.29-1.72-2.21-.44-.92-.67-2.15-.67-3.67v-16.96h-5.64v-3.29h5.64v-7.68h3.96v7.68h7.68v3.29Z"/><path class="cls-1" d="m331.88,61.13c0,.81-.29,1.49-.87,2.01-.58.52-1.23.79-1.91.79s-1.34-.26-1.92-.79c-.58-.52-.86-1.19-.86-2.01s.28-1.48.86-2.01c.58-.52,1.23-.79,1.92-.79s1.33.26,1.91.79c.58.52.87,1.2.87,2.01m-.82,37.65h-3.95v-27.18h3.95v27.18Z"/><path class="cls-1" d="m358.84,77.8c-.66-1.05-1.62-1.9-2.88-2.58-1.25-.68-2.63-1.01-4.09-1.01-1.58,0-3.02.28-4.3.83-1.27.57-2.37,1.34-3.28,2.34-.9.98-1.62,2.13-2.08,3.47-.49,1.34-.74,2.78-.74,4.33s.25,2.99.74,4.3c.47,1.32,1.16,2.48,2.05,3.45.89,1,1.98,1.77,3.26,2.34,1.27.55,2.7.83,4.3.83,1.74,0,3.21-.31,4.41-.98,1.21-.66,2.19-1.52,2.97-2.57l2.96,2.21c-1.16,1.43-2.58,2.59-4.27,3.43-1.69.86-3.72,1.28-6.07,1.28-2.21,0-4.2-.36-5.98-1.07-1.79-.72-3.3-1.72-4.56-3.01-1.26-1.28-2.24-2.77-2.94-4.52-.69-1.75-1.05-3.63-1.05-5.7s.36-3.95,1.05-5.68c.7-1.74,1.68-3.27,2.94-4.53,1.26-1.27,2.78-2.28,4.56-2.99,1.78-.72,3.77-1.08,5.98-1.08,1.82,0,3.67.4,5.55,1.2,1.87.8,3.4,1.97,4.56,3.51l-3.08,2.2Z"/><path class="cls-1" d="m382.77,78.04c-.58-1.13-1.46-2.05-2.64-2.76-1.18-.72-2.53-1.07-4.03-1.07-.69,0-1.4.07-2.09.22-.7.16-1.31.41-1.86.75-.54.36-.98.8-1.31,1.34-.33.55-.49,1.18-.49,1.92,0,1.29.52,2.25,1.57,2.93,1.05.68,2.69,1.26,4.94,1.71,3.22.66,5.59,1.63,7.11,2.87,1.53,1.27,2.3,2.97,2.3,5.1,0,1.55-.3,2.86-.9,3.92-.6,1.06-1.38,1.93-2.35,2.61-.97.68-2.07,1.16-3.29,1.46-1.22.29-2.45.43-3.69.43-2.05,0-4.04-.42-5.98-1.29-1.94-.83-3.53-2.18-4.76-3.99l3.14-2.34c.69,1.2,1.72,2.22,3.08,3.02,1.35.82,2.84,1.23,4.47,1.23.85,0,1.66-.07,2.44-.23.77-.16,1.45-.43,2.03-.81.58-.39,1.05-.88,1.39-1.49.35-.59.52-1.33.52-2.24,0-1.43-.69-2.51-2.06-3.21-1.38-.73-3.36-1.4-5.96-2.01-.81-.18-1.68-.44-2.58-.72-.91-.29-1.75-.73-2.53-1.3-.78-.54-1.4-1.26-1.91-2.1-.5-.86-.76-1.93-.76-3.19,0-1.41.28-2.59.82-3.58.53-.98,1.27-1.79,2.17-2.43.91-.66,1.95-1.12,3.11-1.45,1.16-.29,2.36-.45,3.61-.45,1.89,0,3.73.43,5.51,1.27,1.77.87,3.12,2.07,4,3.61l-3.02,2.27Z"/><path class="cls-3" d="m139.18,57.66c-3.34,0-10.91.05-10.91.05,0,0,.09,6.2,0,11.53,4.75,35.83-8.94,57.82-35.44,69.8-34.07,15.43-69.17-1.04-81.65-28.18-.09-.43-.67-1.38-.77-1.46-.59-.64-1.44-1.05-2.38-1.05-1.81,0-3.27,1.46-3.27,3.26,0,.53.14,1.01.36,1.46,23.53,61.68,83.85,56.58,110.76,37.9,26.4-18.32,43.36-56.59,23.31-93.32"/><path class="cls-3" d="m49.4,34.13c.09,0,.18-.02.26-.03.12-.03.24-.06.36-.07,8.94-1.84,16.89-1.82,21.86-.93,17.83,3.13,28.08,7.82,41.94,21.28.02.03,11.09,0,11.09,0v-7.04c-9.85-11.45-29.97-22.28-50.19-22.27-8.75,0-17.19,1.24-25.84,4.67-.21.06-.41.13-.59.23-.67.39-1.12,1.11-1.12,1.94,0,1.21,1,2.23,2.23,2.23"/><path class="cls-3" d="m37.79,114.59c.1.03.23.05.34.05.05,0,.09-.02.14-.02,41.08,1.93,70.14-20.14,86.64-38.17v-18.75s-4.01-.05-7.82-.05c-11.85,10.78-42.14,22.76-70.04,19.88-.12-.02-.23-.03-.36-.03,0,0-.02,0-.02,0-.65,0-1.19.4-1.44.93-.09.19-.14.4-.15.59-1.46,5.82-6.35,25.39-8.39,33.32-.07.17-.12.35-.14.52,0,.05-.02.11-.02.14,0,.78.55,1.44,1.28,1.57"/><path class="cls-4" d="m381.09,36.26c5.06,0,9.16,4.03,9.16,9.01s-4.1,9.01-9.16,9.01-9.16-4.03-9.16-9.01,4.1-9.01,9.16-9.01Z"/><text class="cls-2" transform="translate(375.71 50.63)"><tspan x="0" y="0">R</tspan></text></svg>